# MagicaVoxel @ ephtracy

# material
mtllib bluecheese.mtl

# normals
vn -1 0 0
vn 1 0 0
vn 0 0 1
vn 0 0 -1
vn 0 -1 0
vn 0 1 0

# texcoords
vt 0.00976563 0.5
vt 0.935547 0.5

# verts
v -8.5 0 -17.5
v -8.5 1 -17.5
v -8.5 1 -18.5
v -8.5 0 -18.5
v -8.5 0 -11.5
v -8.5 1 -11.5
v -8.5 1 -12.5
v -8.5 0 -12.5
v -6.5 0 -8.5
v -6.5 1 -8.5
v -6.5 1 -9.5
v -6.5 0 -9.5
v -8.5 1 -13.5
v -8.5 0 -13.5
v -7.5 0 -19.5
v -7.5 1 -19.5
v -7.5 1 -20.5
v -7.5 0 -20.5
v -8.5 1 -14.5
v -8.5 0 -14.5
v -8.5 1 -15.5
v -8.5 0 -15.5
v -8.5 1 -16.5
v -8.5 0 -16.5
v -8.5 1 -19.5
v -8.5 0 -19.5
v -6.5 0 -20.5
v -6.5 1 -20.5
v -6.5 1 -21.5
v -6.5 0 -21.5
v -7.5 0 -9.5
v -7.5 1 -9.5
v -7.5 1 -10.5
v -7.5 0 -10.5
v -8.5 0 -10.5
v -8.5 1 -10.5
v 2.5 0 -20.5
v 2.5 0 -21.5
v 2.5 1 -21.5
v 2.5 1 -20.5
v 2.5 0 -8.5
v 2.5 0 -9.5
v 2.5 1 -9.5
v 2.5 1 -8.5
v 3.5 0 -19.5
v 3.5 0 -20.5
v 3.5 1 -20.5
v 3.5 1 -19.5
v 4.5 0 -15.5
v 4.5 0 -16.5
v 4.5 1 -16.5
v 4.5 1 -15.5
v 4.5 0 -12.5
v 4.5 0 -13.5
v 4.5 1 -13.5
v 4.5 1 -12.5
v 4.5 0 -11.5
v 4.5 1 -11.5
v 4.5 0 -14.5
v 4.5 1 -14.5
v 3.5 0 -9.5
v 3.5 0 -10.5
v 3.5 1 -10.5
v 3.5 1 -9.5
v 4.5 0 -17.5
v 4.5 0 -18.5
v 4.5 1 -18.5
v 4.5 1 -17.5
v 4.5 0 -19.5
v 4.5 1 -19.5
v 4.5 0 -10.5
v 4.5 1 -10.5
v -4.5 0 -8.5
v -3.5 0 -8.5
v -3.5 1 -8.5
v -4.5 1 -8.5
v -2.5 0 -8.5
v -2.5 1 -8.5
v -1.5 0 -8.5
v -0.5 0 -8.5
v -0.5 1 -8.5
v -1.5 1 -8.5
v 0.5 0 -8.5
v 0.5 1 -8.5
v 1.5 0 -8.5
v 1.5 1 -8.5
v -5.5 0 -8.5
v -5.5 1 -8.5
v 1.5 0 -21.5
v 1.5 1 -21.5
v -5.5 0 -21.5
v -5.5 1 -21.5
v -4.5 1 -21.5
v -4.5 0 -21.5
v -0.5 0 -21.5
v -0.5 1 -21.5
v 0.5 1 -21.5
v 0.5 0 -21.5
v -3.5 1 -21.5
v -3.5 0 -21.5
v -1.5 0 -21.5
v -1.5 1 -21.5
v -2.5 0 -21.5
v -2.5 1 -21.5
v -6.5 0 -19.5
v -5.5 0 -20.5
v -5.5 0 -19.5
v -4.5 0 -9.5
v -3.5 0 -9.5
v -2.5 0 -9.5
v -3.5 0 -18.5
v -3.5 0 -19.5
v -2.5 0 -19.5
v -2.5 0 -18.5
v -1.5 0 -9.5
v -0.5 0 -9.5
v 0.5 0 -9.5
v 1.5 0 -9.5
v -6.5 0 -10.5
v -5.5 0 -10.5
v -5.5 0 -9.5
v 1.5 0 -18.5
v 1.5 0 -19.5
v 2.5 0 -19.5
v 2.5 0 -18.5
v -4.5 0 -10.5
v -3.5 0 -10.5
v -2.5 0 -10.5
v -0.5 0 -18.5
v -0.5 0 -19.5
v 0.5 0 -19.5
v 0.5 0 -18.5
v 1.5 0 -20.5
v -0.5 0 -10.5
v 0.5 0 -10.5
v -6.5 0 -16.5
v -6.5 0 -17.5
v -5.5 0 -17.5
v -5.5 0 -16.5
v -7.5 0 -11.5
v -6.5 0 -11.5
v 0.5 0 -20.5
v -4.5 0 -11.5
v -3.5 0 -11.5
v -7.5 0 -18.5
v -7.5 0 -17.5
v -1.5 0 -18.5
v -1.5 0 -19.5
v -1.5 0 -10.5
v -1.5 0 -11.5
v -0.5 0 -11.5
v 0.5 0 -11.5
v 1.5 0 -11.5
v 1.5 0 -10.5
v -4.5 0 -20.5
v -6.5 0 -18.5
v -7.5 0 -12.5
v 3.5 0 -15.5
v 3.5 0 -16.5
v 1.5 0 -17.5
v 2.5 0 -17.5
v 2.5 0 -16.5
v 3.5 0 -17.5
v -4.5 0 -12.5
v -3.5 0 -12.5
v -1.5 0 -20.5
v -0.5 0 -20.5
v -2.5 0 -11.5
v -2.5 0 -12.5
v -1.5 0 -12.5
v -1.5 0 -16.5
v -1.5 0 -17.5
v -0.5 0 -17.5
v -0.5 0 -16.5
v 2.5 0 -11.5
v 2.5 0 -12.5
v 3.5 0 -12.5
v 3.5 0 -11.5
v -7.5 0 -13.5
v -6.5 0 -13.5
v -6.5 0 -12.5
v -5.5 0 -13.5
v -5.5 0 -12.5
v -4.5 0 -13.5
v -5.5 0 -11.5
v -3.5 0 -13.5
v -2.5 0 -13.5
v -1.5 0 -13.5
v -0.5 0 -12.5
v -0.5 0 -13.5
v 0.5 0 -13.5
v 0.5 0 -12.5
v 1.5 0 -13.5
v 1.5 0 -12.5
v 2.5 0 -13.5
v 3.5 0 -13.5
v -7.5 0 -14.5
v -6.5 0 -14.5
v -5.5 0 -14.5
v -3.5 0 -20.5
v -2.5 0 -20.5
v -4.5 0 -14.5
v -3.5 0 -14.5
v -2.5 0 -14.5
v -1.5 0 -14.5
v -5.5 0 -15.5
v -4.5 0 -15.5
v 0.5 0 -14.5
v 1.5 0 -14.5
v 2.5 0 -15.5
v 3.5 0 -14.5
v -7.5 0 -15.5
v 1.5 0 -16.5
v -3.5 0 -15.5
v 2.5 0 -10.5
v -1.5 0 -15.5
v -0.5 0 -15.5
v -0.5 0 -14.5
v -2.5 0 -15.5
v 3.5 0 -18.5
v 2.5 0 -14.5
v -7.5 0 -16.5
v -6.5 0 -15.5
v -4.5 0 -19.5
v -4.5 0 -16.5
v 0.5 0 -16.5
v 0.5 0 -15.5
v 1.5 0 -15.5
v -4.5 0 -17.5
v -3.5 0 -16.5
v -3.5 0 -17.5
v -2.5 0 -17.5
v -2.5 0 -16.5
v 0.5 0 -17.5
v -5.5 0 -18.5
v -4.5 0 -18.5
v -6.5 1 -19.5
v -5.5 1 -19.5
v -5.5 1 -20.5
v -3.5 1 -9.5
v -4.5 1 -9.5
v -2.5 1 -9.5
v -3.5 1 -18.5
v -2.5 1 -18.5
v -2.5 1 -19.5
v -3.5 1 -19.5
v -0.5 1 -9.5
v -1.5 1 -9.5
v 0.5 1 -9.5
v 1.5 1 -9.5
v -5.5 1 -9.5
v -5.5 1 -10.5
v -6.5 1 -10.5
v 1.5 1 -18.5
v 2.5 1 -18.5
v 2.5 1 -19.5
v 1.5 1 -19.5
v -3.5 1 -10.5
v -4.5 1 -10.5
v -2.5 1 -10.5
v -0.5 1 -18.5
v 0.5 1 -18.5
v 0.5 1 -19.5
v -0.5 1 -19.5
v 1.5 1 -20.5
v 0.5 1 -10.5
v -0.5 1 -10.5
v -6.5 1 -16.5
v -5.5 1 -16.5
v -5.5 1 -17.5
v -6.5 1 -17.5
v -6.5 1 -11.5
v -7.5 1 -11.5
v 0.5 1 -20.5
v -3.5 1 -11.5
v -4.5 1 -11.5
v -7.5 1 -17.5
v -7.5 1 -18.5
v -1.5 1 -18.5
v -1.5 1 -19.5
v -1.5 1 -10.5
v -0.5 1 -11.5
v -1.5 1 -11.5
v 0.5 1 -11.5
v 1.5 1 -10.5
v 1.5 1 -11.5
v -4.5 1 -20.5
v -6.5 1 -18.5
v -7.5 1 -12.5
v 3.5 1 -15.5
v 3.5 1 -16.5
v 1.5 1 -17.5
v 2.5 1 -17.5
v 2.5 1 -16.5
v 3.5 1 -17.5
v -3.5 1 -12.5
v -4.5 1 -12.5
v -0.5 1 -20.5
v -1.5 1 -20.5
v -2.5 1 -11.5
v -1.5 1 -12.5
v -2.5 1 -12.5
v -1.5 1 -16.5
v -0.5 1 -16.5
v -0.5 1 -17.5
v -1.5 1 -17.5
v 2.5 1 -11.5
v 3.5 1 -11.5
v 3.5 1 -12.5
v 2.5 1 -12.5
v -7.5 1 -13.5
v -6.5 1 -12.5
v -6.5 1 -13.5
v -5.5 1 -12.5
v -5.5 1 -13.5
v -4.5 1 -13.5
v -5.5 1 -11.5
v -2.5 1 -13.5
v -3.5 1 -13.5
v -1.5 1 -13.5
v -0.5 1 -12.5
v 0.5 1 -12.5
v 0.5 1 -13.5
v -0.5 1 -13.5
v 1.5 1 -12.5
v 1.5 1 -13.5
v 2.5 1 -13.5
v 3.5 1 -13.5
v -7.5 1 -14.5
v -5.5 1 -14.5
v -6.5 1 -14.5
v -2.5 1 -20.5
v -3.5 1 -20.5
v -3.5 1 -14.5
v -4.5 1 -14.5
v -2.5 1 -14.5
v -1.5 1 -14.5
v -4.5 1 -15.5
v -5.5 1 -15.5
v 1.5 1 -14.5
v 0.5 1 -14.5
v 2.5 1 -15.5
v 3.5 1 -14.5
v -7.5 1 -15.5
v 1.5 1 -16.5
v -3.5 1 -15.5
v 2.5 1 -10.5
v -0.5 1 -14.5
v -0.5 1 -15.5
v -1.5 1 -15.5
v -2.5 1 -15.5
v 3.5 1 -18.5
v 2.5 1 -14.5
v -7.5 1 -16.5
v -6.5 1 -15.5
v -4.5 1 -19.5
v -4.5 1 -16.5
v 0.5 1 -15.5
v 0.5 1 -16.5
v 1.5 1 -15.5
v -4.5 1 -17.5
v -3.5 1 -16.5
v -2.5 1 -16.5
v -2.5 1 -17.5
v -3.5 1 -17.5
v 0.5 1 -17.5
v -5.5 1 -18.5
v -4.5 1 -18.5

# faces

usemtl palette

f 1/2/1 2/2/1 3/2/1 4/2/1

f 5/1/1 6/1/1 7/1/1 8/1/1

f 9/1/1 10/1/1 11/1/1 12/1/1

f 8/1/1 7/1/1 13/1/1 14/1/1

f 15/2/1 16/2/1 17/2/1 18/2/1

f 14/1/1 13/1/1 19/1/1 20/1/1

f 20/1/1 19/1/1 21/1/1 22/1/1

f 22/1/1 21/1/1 23/1/1 24/1/1

f 4/1/1 3/1/1 25/1/1 26/1/1

f 24/2/1 23/2/1 2/2/1 1/2/1

f 27/1/1 28/1/1 29/1/1 30/1/1

f 31/2/1 32/2/1 33/2/1 34/2/1

f 35/2/1 36/2/1 6/2/1 5/2/1

f 37/1/2 38/1/2 39/1/2 40/1/2

f 41/1/2 42/1/2 43/1/2 44/1/2

f 45/2/2 46/2/2 47/2/2 48/2/2

f 49/1/2 50/1/2 51/1/2 52/1/2

f 53/1/2 54/1/2 55/1/2 56/1/2

f 57/1/2 53/1/2 56/1/2 58/1/2

f 54/1/2 59/1/2 60/1/2 55/1/2

f 61/1/2 62/1/2 63/1/2 64/1/2

f 59/1/2 49/1/2 52/1/2 60/1/2

f 65/1/2 66/1/2 67/1/2 68/1/2

f 66/1/2 69/1/2 70/1/2 67/1/2

f 50/1/2 65/1/2 68/1/2 51/1/2

f 71/2/2 57/2/2 58/2/2 72/2/2

f 73/1/3 74/1/3 75/1/3 76/1/3

f 74/1/3 77/1/3 78/1/3 75/1/3

f 79/1/3 80/1/3 81/1/3 82/1/3

f 80/1/3 83/1/3 84/1/3 81/1/3

f 83/1/3 85/1/3 86/1/3 84/1/3

f 85/1/3 41/1/3 44/1/3 86/1/3

f 9/1/3 87/1/3 88/1/3 10/1/3

f 42/1/3 61/1/3 64/1/3 43/1/3

f 87/1/3 73/1/3 76/1/3 88/1/3

f 62/2/3 71/2/3 72/2/3 63/2/3

f 77/2/3 79/2/3 82/2/3 78/2/3

f 31/2/3 12/2/3 11/2/3 32/2/3

f 35/2/3 34/2/3 33/2/3 36/2/3

f 89/1/4 90/1/4 39/1/4 38/1/4

f 37/2/4 40/2/4 47/2/4 46/2/4

f 91/1/4 92/1/4 93/1/4 94/1/4

f 95/1/4 96/1/4 97/1/4 98/1/4

f 98/1/4 97/1/4 90/1/4 89/1/4

f 18/2/4 17/2/4 28/2/4 27/2/4

f 94/1/4 93/1/4 99/1/4 100/1/4

f 101/1/4 102/1/4 96/1/4 95/1/4

f 26/1/4 25/1/4 16/1/4 15/1/4

f 103/1/4 104/1/4 102/1/4 101/1/4

f 100/1/4 99/1/4 104/1/4 103/1/4

f 45/1/4 48/1/4 70/1/4 69/1/4

f 30/1/4 29/1/4 92/1/4 91/1/4

f 105/1/5 27/1/5 106/1/5 107/1/5

f 73/1/5 108/1/5 109/1/5 74/1/5

f 74/1/5 109/1/5 110/1/5 77/1/5

f 111/1/5 112/1/5 113/1/5 114/1/5

f 79/1/5 115/1/5 116/1/5 80/1/5

f 80/1/5 116/1/5 117/1/5 83/1/5

f 83/1/5 117/1/5 118/1/5 85/1/5

f 12/1/5 119/1/5 120/1/5 121/1/5

f 122/1/5 123/1/5 124/1/5 125/1/5

f 108/1/5 126/1/5 127/1/5 109/1/5

f 109/1/5 127/1/5 128/1/5 110/1/5

f 129/1/5 130/1/5 131/1/5 132/1/5

f 133/1/5 89/1/5 38/1/5 37/1/5

f 116/1/5 134/1/5 135/1/5 117/1/5

f 85/1/5 118/1/5 42/1/5 41/1/5

f 136/1/5 137/1/5 138/1/5 139/1/5

f 34/1/5 140/1/5 141/1/5 119/1/5

f 124/2/5 37/2/5 46/2/5 45/2/5

f 131/1/5 142/1/5 133/1/5 123/1/5

f 126/1/5 143/1/5 144/1/5 127/1/5

f 1/2/5 4/2/5 145/2/5 146/2/5

f 147/1/5 148/1/5 130/1/5 129/1/5

f 149/1/5 150/1/5 151/1/5 134/1/5

f 134/1/5 151/1/5 152/1/5 135/1/5

f 135/1/5 152/1/5 153/1/5 154/1/5

f 106/1/5 91/1/5 94/1/5 155/1/5

f 145/1/5 15/1/5 105/1/5 156/1/5

f 5/1/5 8/1/5 157/1/5 140/1/5

f 158/1/5 159/1/5 50/1/5 49/1/5

f 160/2/5 122/2/5 125/2/5 161/2/5

f 162/2/5 161/2/5 163/2/5 159/2/5

f 143/1/5 164/1/5 165/1/5 144/1/5

f 148/1/5 166/1/5 167/1/5 130/1/5

f 168/1/5 169/1/5 170/1/5 150/1/5

f 167/1/5 95/1/5 98/1/5 142/1/5

f 142/1/5 98/1/5 89/1/5 133/1/5

f 171/1/5 172/1/5 173/1/5 174/1/5

f 9/1/5 12/1/5 121/1/5 87/1/5

f 175/1/5 176/1/5 177/1/5 178/1/5

f 172/2/5 147/2/5 129/2/5 173/2/5

f 8/1/5 14/1/5 179/1/5 157/1/5

f 157/1/5 179/1/5 180/1/5 181/1/5

f 181/1/5 180/1/5 182/1/5 183/1/5

f 183/1/5 182/1/5 184/1/5 164/1/5

f 141/1/5 181/1/5 183/1/5 185/1/5

f 165/1/5 186/1/5 187/1/5 169/1/5

f 169/1/5 187/1/5 188/1/5 170/1/5

f 15/2/5 18/2/5 27/2/5 105/2/5

f 189/1/5 190/1/5 191/1/5 192/1/5

f 192/1/5 191/1/5 193/1/5 194/1/5

f 194/1/5 193/1/5 195/1/5 176/1/5

f 176/1/5 195/1/5 196/1/5 177/1/5

f 177/1/5 196/1/5 54/1/5 53/1/5

f 14/1/5 20/1/5 197/1/5 179/1/5

f 120/1/5 185/1/5 143/1/5 126/1/5

f 180/1/5 198/1/5 199/1/5 182/1/5

f 112/1/5 200/1/5 201/1/5 113/1/5

f 184/1/5 202/1/5 203/1/5 186/1/5

f 186/1/5 203/1/5 204/1/5 187/1/5

f 187/1/5 204/1/5 205/1/5 188/1/5

f 199/1/5 206/1/5 207/1/5 202/1/5

f 130/1/5 167/1/5 142/1/5 131/1/5

f 191/1/5 208/1/5 209/1/5 193/1/5

f 210/1/5 162/1/5 159/1/5 158/1/5

f 178/1/5 177/1/5 53/1/5 57/1/5

f 196/1/5 211/1/5 59/1/5 54/1/5

f 20/1/5 22/1/5 212/1/5 197/1/5

f 213/2/5 160/2/5 161/2/5 162/2/5

f 113/1/5 201/1/5 166/1/5 148/1/5

f 155/1/5 94/1/5 100/1/5 200/1/5

f 202/1/5 207/1/5 214/1/5 203/1/5

f 42/1/5 215/1/5 62/1/5 61/1/5

f 166/1/5 101/1/5 95/1/5 167/1/5

f 205/1/5 216/1/5 217/1/5 218/1/5

f 204/1/5 219/1/5 216/1/5 205/1/5

f 125/2/5 124/2/5 45/2/5 220/2/5

f 140/1/5 157/1/5 181/1/5 141/1/5

f 221/1/5 210/1/5 158/1/5 211/1/5

f 211/1/5 158/1/5 49/1/5 59/1/5

f 22/1/5 24/1/5 222/1/5 212/1/5

f 212/1/5 222/1/5 136/1/5 223/1/5

f 107/1/5 106/1/5 155/1/5 224/1/5

f 206/1/5 139/1/5 225/1/5 207/1/5

f 185/1/5 183/1/5 164/1/5 143/1/5

f 4/1/5 26/1/5 15/1/5 145/1/5

f 115/1/5 149/1/5 134/1/5 116/1/5

f 216/1/5 171/1/5 174/1/5 217/1/5

f 217/1/5 174/1/5 226/1/5 227/1/5

f 227/1/5 226/1/5 213/1/5 228/1/5

f 228/1/5 213/1/5 162/1/5 210/1/5

f 201/1/5 103/1/5 101/1/5 166/1/5

f 139/2/5 138/2/5 229/2/5 225/2/5

f 200/1/5 100/1/5 103/1/5 201/1/5

f 222/1/5 146/1/5 137/1/5 136/1/5

f 114/2/5 113/2/5 148/2/5 147/2/5

f 24/2/5 1/2/5 146/2/5 222/2/5

f 163/1/5 220/1/5 66/1/5 65/1/5

f 230/1/5 231/1/5 232/1/5 233/1/5

f 233/1/5 232/1/5 172/1/5 171/1/5

f 87/1/5 121/1/5 108/1/5 73/1/5

f 174/1/5 173/1/5 234/1/5 226/1/5

f 226/1/5 234/1/5 160/1/5 213/1/5

f 224/1/5 155/1/5 200/1/5 112/1/5

f 220/1/5 45/1/5 69/1/5 66/1/5

f 159/1/5 163/1/5 65/1/5 50/1/5

f 156/1/5 105/1/5 107/1/5 235/1/5

f 146/1/5 145/1/5 156/1/5 137/1/5

f 170/1/5 188/1/5 190/1/5 189/1/5

f 138/1/5 235/1/5 236/1/5 229/1/5

f 27/1/5 30/1/5 91/1/5 106/1/5

f 231/1/5 111/1/5 114/1/5 232/1/5

f 232/1/5 114/1/5 147/1/5 172/1/5

f 127/1/5 144/1/5 168/1/5 128/1/5

f 173/1/5 129/1/5 132/1/5 234/1/5

f 234/1/5 132/1/5 122/1/5 160/1/5

f 123/2/5 133/2/5 37/2/5 124/2/5

f 161/1/5 125/1/5 220/1/5 163/1/5

f 203/2/5 214/2/5 219/2/5 204/2/5

f 219/2/5 233/2/5 171/2/5 216/2/5

f 188/2/5 205/2/5 218/2/5 190/2/5

f 190/2/5 218/2/5 208/2/5 191/2/5

f 218/2/5 217/2/5 227/2/5 208/2/5

f 208/2/5 227/2/5 228/2/5 209/2/5

f 193/2/5 209/2/5 221/2/5 195/2/5

f 209/2/5 228/2/5 210/2/5 221/2/5

f 195/2/5 221/2/5 211/2/5 196/2/5

f 215/2/5 175/2/5 178/2/5 62/2/5

f 62/2/5 178/2/5 57/2/5 71/2/5

f 118/2/5 154/2/5 215/2/5 42/2/5

f 117/2/5 135/2/5 154/2/5 118/2/5

f 154/2/5 153/2/5 175/2/5 215/2/5

f 153/2/5 194/2/5 176/2/5 175/2/5

f 150/2/5 170/2/5 189/2/5 151/2/5

f 151/2/5 189/2/5 192/2/5 152/2/5

f 152/2/5 192/2/5 194/2/5 153/2/5

f 77/2/5 110/2/5 115/2/5 79/2/5

f 110/2/5 128/2/5 149/2/5 115/2/5

f 128/2/5 168/2/5 150/2/5 149/2/5

f 121/2/5 120/2/5 126/2/5 108/2/5

f 119/2/5 141/2/5 185/2/5 120/2/5

f 31/2/5 34/2/5 119/2/5 12/2/5

f 35/2/5 5/2/5 140/2/5 34/2/5

f 144/2/5 165/2/5 169/2/5 168/2/5

f 164/2/5 184/2/5 186/2/5 165/2/5

f 182/2/5 199/2/5 202/2/5 184/2/5

f 179/2/5 197/2/5 198/2/5 180/2/5

f 198/2/5 223/2/5 206/2/5 199/2/5

f 223/2/5 136/2/5 139/2/5 206/2/5

f 197/2/5 212/2/5 223/2/5 198/2/5

f 137/2/5 156/2/5 235/2/5 138/2/5

f 207/2/5 225/2/5 230/2/5 214/2/5

f 214/2/5 230/2/5 233/2/5 219/2/5

f 225/2/5 229/2/5 231/2/5 230/2/5

f 229/2/5 236/2/5 111/2/5 231/2/5

f 235/2/5 107/2/5 224/2/5 236/2/5

f 132/2/5 131/2/5 123/2/5 122/2/5

f 236/2/5 224/2/5 112/2/5 111/2/5

f 237/1/6 238/1/6 239/1/6 28/1/6

f 76/1/6 75/1/6 240/1/6 241/1/6

f 75/1/6 78/1/6 242/1/6 240/1/6

f 243/1/6 244/1/6 245/1/6 246/1/6

f 82/1/6 81/1/6 247/1/6 248/1/6

f 81/1/6 84/1/6 249/1/6 247/1/6

f 84/1/6 86/1/6 250/1/6 249/1/6

f 11/1/6 251/1/6 252/1/6 253/1/6

f 254/1/6 255/1/6 256/1/6 257/1/6

f 241/1/6 240/1/6 258/1/6 259/1/6

f 240/1/6 242/1/6 260/1/6 258/1/6

f 261/1/6 262/1/6 263/1/6 264/1/6

f 265/1/6 40/1/6 39/1/6 90/1/6

f 247/1/6 249/1/6 266/1/6 267/1/6

f 86/1/6 44/1/6 43/1/6 250/1/6

f 268/1/6 269/1/6 270/1/6 271/1/6

f 33/1/6 253/1/6 272/1/6 273/1/6

f 256/2/6 48/2/6 47/2/6 40/2/6

f 263/1/6 257/1/6 265/1/6 274/1/6

f 259/1/6 258/1/6 275/1/6 276/1/6

f 2/2/6 277/2/6 278/2/6 3/2/6

f 279/1/6 261/1/6 264/1/6 280/1/6

f 281/1/6 267/1/6 282/1/6 283/1/6

f 267/1/6 266/1/6 284/1/6 282/1/6

f 266/1/6 285/1/6 286/1/6 284/1/6

f 239/1/6 287/1/6 93/1/6 92/1/6

f 278/1/6 288/1/6 237/1/6 16/1/6

f 6/1/6 273/1/6 289/1/6 7/1/6

f 290/1/6 52/1/6 51/1/6 291/1/6

f 292/2/6 293/2/6 255/2/6 254/2/6

f 294/2/6 291/2/6 295/2/6 293/2/6

f 276/1/6 275/1/6 296/1/6 297/1/6

f 280/1/6 264/1/6 298/1/6 299/1/6

f 300/1/6 283/1/6 301/1/6 302/1/6

f 298/1/6 274/1/6 97/1/6 96/1/6

f 274/1/6 265/1/6 90/1/6 97/1/6

f 303/1/6 304/1/6 305/1/6 306/1/6

f 10/1/6 88/1/6 251/1/6 11/1/6

f 307/1/6 308/1/6 309/1/6 310/1/6

f 306/2/6 305/2/6 261/2/6 279/2/6

f 7/1/6 289/1/6 311/1/6 13/1/6

f 289/1/6 312/1/6 313/1/6 311/1/6

f 312/1/6 314/1/6 315/1/6 313/1/6

f 314/1/6 297/1/6 316/1/6 315/1/6

f 272/1/6 317/1/6 314/1/6 312/1/6

f 296/1/6 302/1/6 318/1/6 319/1/6

f 302/1/6 301/1/6 320/1/6 318/1/6

f 16/2/6 237/2/6 28/2/6 17/2/6

f 321/1/6 322/1/6 323/1/6 324/1/6

f 322/1/6 325/1/6 326/1/6 323/1/6

f 325/1/6 310/1/6 327/1/6 326/1/6

f 310/1/6 309/1/6 328/1/6 327/1/6

f 309/1/6 56/1/6 55/1/6 328/1/6

f 13/1/6 311/1/6 329/1/6 19/1/6

f 252/1/6 259/1/6 276/1/6 317/1/6

f 313/1/6 315/1/6 330/1/6 331/1/6

f 246/1/6 245/1/6 332/1/6 333/1/6

f 316/1/6 319/1/6 334/1/6 335/1/6

f 319/1/6 318/1/6 336/1/6 334/1/6

f 318/1/6 320/1/6 337/1/6 336/1/6

f 330/1/6 335/1/6 338/1/6 339/1/6

f 264/1/6 263/1/6 274/1/6 298/1/6

f 323/1/6 326/1/6 340/1/6 341/1/6

f 342/1/6 290/1/6 291/1/6 294/1/6

f 308/1/6 58/1/6 56/1/6 309/1/6

f 328/1/6 55/1/6 60/1/6 343/1/6

f 19/1/6 329/1/6 344/1/6 21/1/6

f 345/2/6 294/2/6 293/2/6 292/2/6

f 245/1/6 280/1/6 299/1/6 332/1/6

f 287/1/6 333/1/6 99/1/6 93/1/6

f 335/1/6 334/1/6 346/1/6 338/1/6

f 43/1/6 64/1/6 63/1/6 347/1/6

f 299/1/6 298/1/6 96/1/6 102/1/6

f 337/1/6 348/1/6 349/1/6 350/1/6

f 336/1/6 337/1/6 350/1/6 351/1/6

f 255/2/6 352/2/6 48/2/6 256/2/6

f 273/1/6 272/1/6 312/1/6 289/1/6

f 353/1/6 343/1/6 290/1/6 342/1/6

f 343/1/6 60/1/6 52/1/6 290/1/6

f 21/1/6 344/1/6 354/1/6 23/1/6

f 344/1/6 355/1/6 268/1/6 354/1/6

f 238/1/6 356/1/6 287/1/6 239/1/6

f 339/1/6 338/1/6 357/1/6 269/1/6

f 317/1/6 276/1/6 297/1/6 314/1/6

f 3/1/6 278/1/6 16/1/6 25/1/6

f 248/1/6 247/1/6 267/1/6 281/1/6

f 350/1/6 349/1/6 304/1/6 303/1/6

f 349/1/6 358/1/6 359/1/6 304/1/6

f 358/1/6 360/1/6 345/1/6 359/1/6

f 360/1/6 342/1/6 294/1/6 345/1/6

f 332/1/6 299/1/6 102/1/6 104/1/6

f 269/2/6 357/2/6 361/2/6 270/2/6

f 333/1/6 332/1/6 104/1/6 99/1/6

f 354/1/6 268/1/6 271/1/6 277/1/6

f 244/2/6 279/2/6 280/2/6 245/2/6

f 23/2/6 354/2/6 277/2/6 2/2/6

f 295/1/6 68/1/6 67/1/6 352/1/6

f 362/1/6 363/1/6 364/1/6 365/1/6

f 363/1/6 303/1/6 306/1/6 364/1/6

f 88/1/6 76/1/6 241/1/6 251/1/6

f 304/1/6 359/1/6 366/1/6 305/1/6

f 359/1/6 345/1/6 292/1/6 366/1/6

f 356/1/6 246/1/6 333/1/6 287/1/6

f 352/1/6 67/1/6 70/1/6 48/1/6

f 291/1/6 51/1/6 68/1/6 295/1/6

f 288/1/6 367/1/6 238/1/6 237/1/6

f 277/1/6 271/1/6 288/1/6 278/1/6

f 301/1/6 321/1/6 324/1/6 320/1/6

f 270/1/6 361/1/6 368/1/6 367/1/6

f 28/1/6 239/1/6 92/1/6 29/1/6

f 365/1/6 364/1/6 244/1/6 243/1/6

f 364/1/6 306/1/6 279/1/6 244/1/6

f 258/1/6 260/1/6 300/1/6 275/1/6

f 305/1/6 366/1/6 262/1/6 261/1/6

f 366/1/6 292/1/6 254/1/6 262/1/6

f 257/2/6 256/2/6 40/2/6 265/2/6

f 293/1/6 295/1/6 352/1/6 255/1/6

f 334/2/6 336/2/6 351/2/6 346/2/6

f 351/2/6 350/2/6 303/2/6 363/2/6

f 320/2/6 324/2/6 348/2/6 337/2/6

f 324/2/6 323/2/6 341/2/6 348/2/6

f 348/2/6 341/2/6 358/2/6 349/2/6

f 341/2/6 340/2/6 360/2/6 358/2/6

f 326/2/6 327/2/6 353/2/6 340/2/6

f 340/2/6 353/2/6 342/2/6 360/2/6

f 327/2/6 328/2/6 343/2/6 353/2/6

f 347/2/6 63/2/6 308/2/6 307/2/6

f 63/2/6 72/2/6 58/2/6 308/2/6

f 250/2/6 43/2/6 347/2/6 285/2/6

f 249/2/6 250/2/6 285/2/6 266/2/6

f 285/2/6 347/2/6 307/2/6 286/2/6

f 286/2/6 307/2/6 310/2/6 325/2/6

f 283/2/6 282/2/6 321/2/6 301/2/6

f 282/2/6 284/2/6 322/2/6 321/2/6

f 284/2/6 286/2/6 325/2/6 322/2/6

f 78/2/6 82/2/6 248/2/6 242/2/6

f 242/2/6 248/2/6 281/2/6 260/2/6

f 260/2/6 281/2/6 283/2/6 300/2/6

f 251/2/6 241/2/6 259/2/6 252/2/6

f 253/2/6 252/2/6 317/2/6 272/2/6

f 32/2/6 11/2/6 253/2/6 33/2/6

f 36/2/6 33/2/6 273/2/6 6/2/6

f 275/2/6 300/2/6 302/2/6 296/2/6

f 297/2/6 296/2/6 319/2/6 316/2/6

f 315/2/6 316/2/6 335/2/6 330/2/6

f 311/2/6 313/2/6 331/2/6 329/2/6

f 331/2/6 330/2/6 339/2/6 355/2/6

f 355/2/6 339/2/6 269/2/6 268/2/6

f 329/2/6 331/2/6 355/2/6 344/2/6

f 271/2/6 270/2/6 367/2/6 288/2/6

f 338/2/6 346/2/6 362/2/6 357/2/6

f 346/2/6 351/2/6 363/2/6 362/2/6

f 357/2/6 362/2/6 365/2/6 361/2/6

f 361/2/6 365/2/6 243/2/6 368/2/6

f 367/2/6 368/2/6 356/2/6 238/2/6

f 262/2/6 254/2/6 257/2/6 263/2/6

f 368/2/6 243/2/6 246/2/6 356/2/6

# numNormals 6
# numTexCoords 2
# numVerts 368
# numFaces 366
