# MagicaVoxel @ ephtracy

# material
mtllib character_egg1.mtl

# normals
vn -1 0 0
vn 1 0 0
vn 0 0 1
vn 0 0 -1
vn 0 -1 0
vn 0 1 0

# texcoords
vt 0.0136719 0.5
vt 0.0175781 0.5
vt 0.962891 0.5

# verts
v -7.5 1 5.5
v -7.5 2 5.5
v -7.5 2 4.5
v -7.5 1 4.5
v -6.5 1 -5.5
v -6.5 2 -5.5
v -6.5 2 -6.5
v -6.5 1 -6.5
v -5.5 1 7.5
v -5.5 2 7.5
v -5.5 2 6.5
v -5.5 1 6.5
v -8.5 1 -2.5
v -8.5 2 -2.5
v -8.5 2 -3.5
v -8.5 1 -3.5
v -8.5 1 4.5
v -8.5 2 4.5
v -8.5 2 3.5
v -8.5 1 3.5
v -8.5 2 2.5
v -8.5 1 2.5
v -8.5 1 -1.5
v -8.5 2 -1.5
v -8.5 2 1.5
v -8.5 1 1.5
v -8.5 1 -0.5
v -8.5 2 -0.5
v -4.5 1 -7.5
v -4.5 2 -7.5
v -4.5 2 -8.5
v -4.5 1 -8.5
v -7.5 1 -4.5
v -7.5 2 -4.5
v -7.5 2 -5.5
v -7.5 1 -5.5
v -8.5 2 0.5
v -8.5 1 0.5
v -5.5 1 -6.5
v -5.5 2 -6.5
v -5.5 2 -7.5
v -5.5 1 -7.5
v -8.5 2 -4.5
v -8.5 1 -4.5
v -6.5 1 6.5
v -6.5 2 6.5
v -6.5 2 5.5
v -6.5 1 5.5
v 0.5 1 5.5
v 0.5 1 4.5
v 0.5 2 4.5
v 0.5 2 5.5
v 2.5 1 1.5
v 2.5 1 0.5
v 2.5 2 0.5
v 2.5 2 1.5
v 4.5 1 -1.5
v 4.5 1 -2.5
v 4.5 2 -2.5
v 4.5 2 -1.5
v -1.5 1 7.5
v -1.5 1 6.5
v -1.5 2 6.5
v -1.5 2 7.5
v 4.5 1 -3.5
v 4.5 2 -3.5
v 2.5 1 2.5
v 2.5 2 2.5
v 3.5 1 0.5
v 3.5 1 -0.5
v 3.5 2 -0.5
v 3.5 2 0.5
v -0.5 1 6.5
v -0.5 1 5.5
v -0.5 2 5.5
v -0.5 2 6.5
v 3.5 1 -1.5
v 3.5 2 -1.5
v 4.5 1 -5.5
v 4.5 1 -6.5
v 4.5 2 -6.5
v 4.5 2 -5.5
v 1.5 1 3.5
v 1.5 1 2.5
v 1.5 2 2.5
v 1.5 2 3.5
v 3.5 1 -6.5
v 3.5 1 -7.5
v 3.5 2 -7.5
v 3.5 2 -6.5
v 5.5 1 -3.5
v 5.5 1 -4.5
v 5.5 2 -4.5
v 5.5 2 -3.5
v 2.5 1 -7.5
v 2.5 1 -8.5
v 2.5 2 -8.5
v 2.5 2 -7.5
v 5.5 1 -5.5
v 5.5 2 -5.5
v 1.5 1 4.5
v 1.5 2 4.5
v -4.5 1 7.5
v -4.5 2 7.5
v -2.5 1 7.5
v -2.5 2 7.5
v -3.5 1 7.5
v -3.5 2 7.5
v 0.5 1 -8.5
v 0.5 2 -8.5
v 1.5 2 -8.5
v 1.5 1 -8.5
v -2.5 1 -8.5
v -2.5 2 -8.5
v -1.5 2 -8.5
v -1.5 1 -8.5
v -3.5 2 -8.5
v -3.5 1 -8.5
v -0.5 2 -8.5
v -0.5 1 -8.5
v -3.5 1 -5.5
v -3.5 1 -6.5
v -2.5 1 -6.5
v -2.5 1 -5.5
v -2.5 1 -3.5
v -2.5 1 -4.5
v -1.5 1 -4.5
v -1.5 1 -3.5
v -6.5 1 -2.5
v -6.5 1 -3.5
v -5.5 1 -3.5
v -5.5 1 -2.5
v -0.5 1 4.5
v 1.5 1 1.5
v 1.5 1 0.5
v -1.5 1 -1.5
v -1.5 1 -2.5
v -0.5 1 -2.5
v -0.5 1 -1.5
v 2.5 1 -1.5
v 2.5 1 -2.5
v 3.5 1 -2.5
v -5.5 1 4.5
v -5.5 1 3.5
v -4.5 1 3.5
v -4.5 1 4.5
v -7.5 1 0.5
v -7.5 1 -0.5
v -6.5 1 -0.5
v -6.5 1 0.5
v -7.5 1 -3.5
v -6.5 1 -4.5
v -6.5 1 4.5
v 0.5 1 -1.5
v 0.5 1 -2.5
v 1.5 1 -2.5
v 1.5 1 -1.5
v 1.5 1 -4.5
v 1.5 1 -5.5
v 2.5 1 -5.5
v 2.5 1 -4.5
v -7.5 1 1.5
v -6.5 1 1.5
v -1.5 1 -5.5
v -1.5 1 -6.5
v -0.5 1 -6.5
v -0.5 1 -5.5
v 1.5 1 -6.5
v 2.5 1 -6.5
v -3.5 1 -3.5
v -3.5 1 -4.5
v -7.5 1 -2.5
v -5.5 1 -5.5
v -5.5 1 -4.5
v 1.5 1 -3.5
v 2.5 1 -3.5
v 0.5 1 -7.5
v 1.5 1 -7.5
v -2.5 1 -2.5
v -7.5 1 3.5
v -6.5 1 3.5
v -4.5 1 6.5
v 0.5 1 -5.5
v 0.5 1 -6.5
v -2.5 1 6.5
v -2.5 1 5.5
v -1.5 1 5.5
v -4.5 1 -5.5
v -4.5 1 -6.5
v -2.5 1 -7.5
v -1.5 1 -7.5
v 3.5 1 -4.5
v 3.5 1 -5.5
v 4.5 1 -4.5
v -0.5 1 -3.5
v -0.5 1 -4.5
v 0.5 1 -4.5
v 0.5 1 -3.5
v -4.5 1 -2.5
v -4.5 1 -3.5
v -3.5 1 -2.5
v -4.5 1 -4.5
v 0.5 1 2.5
v 0.5 1 1.5
v -4.5 1 5.5
v -3.5 1 4.5
v -3.5 1 5.5
v -5.5 1 -0.5
v -5.5 1 0.5
v -3.5 1 6.5
v 3.5 1 -3.5
v -7.5 1 2.5
v -6.5 1 2.5
v -4.5 1 -0.5
v -4.5 1 0.5
v 1.5 1 -0.5
v 2.5 1 -0.5
v -0.5 1 -7.5
v -7.5 1 -1.5
v -3.5 1 -7.5
v -3.5 1 3.5
v -2.5 1 3.5
v -2.5 1 4.5
v -6.5 1 -1.5
v -5.5 1 -1.5
v 0.5 1 3.5
v -5.5 1 2.5
v -4.5 1 -1.5
v -5.5 1 5.5
v 0.5 1 -0.5
v -0.5 1 -0.5
v -1.5 1 4.5
v -0.5 1 3.5
v -1.5 1 3.5
v -2.5 1 2.5
v -1.5 1 2.5
v -3.5 1 2.5
v -0.5 1 2.5
v -1.5 1 1.5
v -0.5 1 1.5
v -2.5 1 1.5
v -3.5 1 1.5
v -4.5 1 2.5
v -4.5 1 1.5
v -3.5 1 0.5
v -2.5 1 0.5
v -1.5 1 0.5
v -0.5 1 0.5
v -1.5 1 -0.5
v -2.5 1 -0.5
v -3.5 1 -0.5
v -2.5 1 -1.5
v -3.5 1 -1.5
v 0.5 1 0.5
v -5.5 1 1.5
v -3.5 2 -5.5
v -2.5 2 -5.5
v -2.5 2 -6.5
v -3.5 2 -6.5
v -2.5 2 -3.5
v -1.5 2 -3.5
v -1.5 2 -4.5
v -2.5 2 -4.5
v -6.5 2 -2.5
v -5.5 2 -2.5
v -5.5 2 -3.5
v -6.5 2 -3.5
v -0.5 2 4.5
v 1.5 2 1.5
v 1.5 2 0.5
v -1.5 2 -1.5
v -0.5 2 -1.5
v -0.5 2 -2.5
v -1.5 2 -2.5
v 2.5 2 -1.5
v 3.5 2 -2.5
v 2.5 2 -2.5
v -5.5 2 4.5
v -4.5 2 4.5
v -4.5 2 3.5
v -5.5 2 3.5
v -7.5 2 0.5
v -6.5 2 0.5
v -6.5 2 -0.5
v -7.5 2 -0.5
v -7.5 2 -3.5
v -6.5 2 -4.5
v -6.5 2 4.5
v 0.5 2 -1.5
v 1.5 2 -1.5
v 1.5 2 -2.5
v 0.5 2 -2.5
v 1.5 2 -4.5
v 2.5 2 -4.5
v 2.5 2 -5.5
v 1.5 2 -5.5
v -7.5 2 1.5
v -6.5 2 1.5
v -1.5 2 -5.5
v -0.5 2 -5.5
v -0.5 2 -6.5
v -1.5 2 -6.5
v 2.5 2 -6.5
v 1.5 2 -6.5
v -3.5 2 -3.5
v -3.5 2 -4.5
v -7.5 2 -2.5
v -5.5 2 -4.5
v -5.5 2 -5.5
v 1.5 2 -3.5
v 2.5 2 -3.5
v 0.5 2 -7.5
v 1.5 2 -7.5
v -2.5 2 -2.5
v -6.5 2 3.5
v -7.5 2 3.5
v -4.5 2 6.5
v 0.5 2 -5.5
v 0.5 2 -6.5
v -2.5 2 6.5
v -1.5 2 5.5
v -2.5 2 5.5
v -4.5 2 -5.5
v -4.5 2 -6.5
v -2.5 2 -7.5
v -1.5 2 -7.5
v 3.5 2 -4.5
v 4.5 2 -4.5
v 3.5 2 -5.5
v -0.5 2 -3.5
v 0.5 2 -3.5
v 0.5 2 -4.5
v -0.5 2 -4.5
v -4.5 2 -2.5
v -3.5 2 -2.5
v -4.5 2 -3.5
v -4.5 2 -4.5
v 0.5 2 2.5
v 0.5 2 1.5
v -4.5 2 5.5
v -3.5 2 5.5
v -3.5 2 4.5
v -5.5 2 0.5
v -5.5 2 -0.5
v -3.5 2 6.5
v 3.5 2 -3.5
v -7.5 2 2.5
v -6.5 2 2.5
v -4.5 2 0.5
v -4.5 2 -0.5
v 1.5 2 -0.5
v 2.5 2 -0.5
v -0.5 2 -7.5
v -7.5 2 -1.5
v -3.5 2 -7.5
v -2.5 2 4.5
v -2.5 2 3.5
v -3.5 2 3.5
v -6.5 2 -1.5
v -5.5 2 -1.5
v 0.5 2 3.5
v -5.5 2 2.5
v -4.5 2 -1.5
v -5.5 2 5.5
v 0.5 2 -0.5
v -0.5 2 -0.5
v -1.5 2 4.5
v -0.5 2 3.5
v -1.5 2 3.5
v -1.5 2 2.5
v -2.5 2 2.5
v -3.5 2 2.5
v -0.5 2 2.5
v -0.5 2 1.5
v -1.5 2 1.5
v -2.5 2 1.5
v -3.5 2 1.5
v -4.5 2 2.5
v -4.5 2 1.5
v -2.5 2 0.5
v -3.5 2 0.5
v -1.5 2 0.5
v -0.5 2 0.5
v -1.5 2 -0.5
v -2.5 2 -0.5
v -3.5 2 -0.5
v -2.5 2 -1.5
v -3.5 2 -1.5
v 0.5 2 0.5
v -5.5 2 1.5

# faces

usemtl palette

f 1/3/1 2/3/1 3/3/1 4/3/1

f 5/3/1 6/3/1 7/3/1 8/3/1

f 9/3/1 10/3/1 11/3/1 12/3/1

f 13/3/1 14/3/1 15/3/1 16/3/1

f 17/3/1 18/3/1 19/3/1 20/3/1

f 20/3/1 19/3/1 21/3/1 22/3/1

f 23/3/1 24/3/1 14/3/1 13/3/1

f 22/3/1 21/3/1 25/3/1 26/3/1

f 27/3/1 28/3/1 24/3/1 23/3/1

f 29/3/1 30/3/1 31/3/1 32/3/1

f 33/3/1 34/3/1 35/3/1 36/3/1

f 26/3/1 25/3/1 37/3/1 38/3/1

f 39/3/1 40/3/1 41/3/1 42/3/1

f 16/3/1 15/3/1 43/3/1 44/3/1

f 45/3/1 46/3/1 47/3/1 48/3/1

f 38/3/1 37/3/1 28/3/1 27/3/1

f 49/3/2 50/3/2 51/3/2 52/3/2

f 53/3/2 54/3/2 55/3/2 56/3/2

f 57/3/2 58/3/2 59/3/2 60/3/2

f 61/3/2 62/3/2 63/3/2 64/3/2

f 58/3/2 65/3/2 66/3/2 59/3/2

f 67/3/2 53/3/2 56/3/2 68/3/2

f 69/3/2 70/3/2 71/3/2 72/3/2

f 73/3/2 74/3/2 75/3/2 76/3/2

f 70/3/2 77/3/2 78/3/2 71/3/2

f 79/3/2 80/3/2 81/3/2 82/3/2

f 83/3/2 84/3/2 85/3/2 86/3/2

f 87/3/2 88/3/2 89/3/2 90/3/2

f 91/3/2 92/3/2 93/3/2 94/3/2

f 95/3/2 96/3/2 97/3/2 98/3/2

f 92/3/2 99/3/2 100/3/2 93/3/2

f 101/3/2 83/3/2 86/3/2 102/3/2

f 74/3/3 49/3/3 52/3/3 75/3/3

f 1/3/3 48/3/3 47/3/3 2/3/3

f 77/3/3 57/3/3 60/3/3 78/3/3

f 9/3/3 103/3/3 104/3/3 10/3/3

f 105/3/3 61/3/3 64/3/3 106/3/3

f 103/3/3 107/3/3 108/3/3 104/3/3

f 84/3/3 67/3/3 68/3/3 85/3/3

f 107/3/3 105/3/3 106/3/3 108/3/3

f 17/3/3 4/3/3 3/3/3 18/3/3

f 54/3/3 69/3/3 72/3/3 55/3/3

f 62/3/3 73/3/3 76/3/3 63/3/3

f 65/3/3 91/3/3 94/3/3 66/3/3

f 45/3/3 12/3/3 11/3/3 46/3/3

f 50/3/3 101/3/3 102/3/3 51/3/3

f 109/3/4 110/3/4 111/3/4 112/3/4

f 8/3/4 7/3/4 40/3/4 39/3/4

f 113/3/4 114/3/4 115/3/4 116/3/4

f 87/3/4 90/3/4 81/3/4 80/3/4

f 32/3/4 31/3/4 117/3/4 118/3/4

f 116/3/4 115/3/4 119/3/4 120/3/4

f 95/3/4 98/3/4 89/3/4 88/3/4

f 36/3/4 35/3/4 6/3/4 5/3/4

f 118/3/4 117/3/4 114/3/4 113/3/4

f 112/3/4 111/3/4 97/3/4 96/3/4

f 42/3/4 41/3/4 30/3/4 29/3/4

f 44/3/4 43/3/4 34/3/4 33/3/4

f 120/3/4 119/3/4 110/3/4 109/3/4

f 79/3/4 82/3/4 100/3/4 99/3/4

f 121/3/5 122/3/5 123/3/5 124/3/5

f 125/3/5 126/3/5 127/3/5 128/3/5

f 129/3/5 130/3/5 131/3/5 132/3/5

f 74/3/5 133/3/5 50/3/5 49/3/5

f 134/3/5 135/3/5 54/3/5 53/3/5

f 136/3/5 137/3/5 138/3/5 139/3/5

f 140/3/5 141/3/5 142/3/5 77/3/5

f 143/3/5 144/3/5 145/3/5 146/3/5

f 147/3/5 148/3/5 149/3/5 150/3/5

f 151/3/5 33/3/5 152/3/5 130/3/5

f 1/3/5 4/3/5 153/3/5 48/3/5

f 154/3/5 155/3/5 156/3/5 157/3/5

f 158/3/5 159/3/5 160/3/5 161/3/5

f 162/3/5 147/3/5 150/3/5 163/3/5

f 164/3/5 165/3/5 166/3/5 167/3/5

f 159/3/5 168/3/5 169/3/5 160/3/5

f 170/3/5 171/3/5 126/3/5 125/3/5

f 172/3/5 151/3/5 130/3/5 129/3/5

f 152/3/5 5/3/5 173/3/5 174/3/5

f 175/3/5 158/3/5 161/3/5 176/3/5

f 130/3/5 152/3/5 174/3/5 131/3/5

f 177/3/5 109/3/5 112/3/5 178/3/5

f 179/3/5 125/3/5 128/3/5 137/3/5

f 77/3/5 142/3/5 58/3/5 57/3/5

f 4/3/5 180/3/5 181/3/5 153/3/5

f 5/3/5 8/3/5 39/3/5 173/3/5

f 9/3/5 12/3/5 182/3/5 103/3/5

f 183/3/5 184/3/5 168/3/5 159/3/5

f 185/3/5 186/3/5 187/3/5 62/3/5

f 188/3/5 189/3/5 122/3/5 121/3/5

f 190/3/5 113/3/5 116/3/5 191/3/5

f 192/3/5 193/3/5 79/3/5 194/3/5

f 195/3/5 196/3/5 197/3/5 198/3/5

f 199/3/5 200/3/5 170/3/5 201/3/5

f 131/3/5 174/3/5 202/3/5 200/3/5

f 203/3/5 204/3/5 134/3/5 84/3/5

f 205/3/5 146/3/5 206/3/5 207/3/5

f 105/3/5 185/3/5 62/3/5 61/3/5

f 150/3/5 149/3/5 208/3/5 209/3/5

f 156/3/5 175/3/5 176/3/5 141/3/5

f 103/3/5 182/3/5 210/3/5 107/3/5

f 13/3/5 16/3/5 151/3/5 172/3/5

f 141/3/5 176/3/5 211/3/5 142/3/5

f 142/3/5 211/3/5 65/3/5 58/3/5

f 212/3/5 162/3/5 163/3/5 213/3/5

f 197/3/5 183/3/5 159/3/5 158/3/5

f 209/3/5 208/3/5 214/3/5 215/3/5

f 84/3/5 134/3/5 53/3/5 67/3/5

f 107/3/5 210/3/5 185/3/5 105/3/5

f 216/3/5 157/3/5 140/3/5 217/3/5

f 17/3/5 20/3/5 180/3/5 4/3/5

f 167/3/5 166/3/5 184/3/5 183/3/5

f 127/3/5 164/3/5 167/3/5 196/3/5

f 54/3/5 217/3/5 70/3/5 69/3/5

f 20/3/5 22/3/5 212/3/5 180/3/5

f 160/3/5 169/3/5 87/3/5 193/3/5

f 165/3/5 191/3/5 218/3/5 166/3/5

f 23/3/5 13/3/5 172/3/5 219/3/5

f 123/3/5 190/3/5 191/3/5 165/3/5

f 196/3/5 167/3/5 183/3/5 197/3/5

f 171/3/5 121/3/5 124/3/5 126/3/5

f 184/3/5 177/3/5 178/3/5 168/3/5

f 189/3/5 29/3/5 220/3/5 122/3/5

f 206/2/5 221/2/5 222/2/5 223/2/5

f 174/3/5 173/3/5 188/3/5 202/3/5

f 62/3/5 187/3/5 74/3/5 73/3/5

f 132/3/5 131/3/5 200/3/5 199/3/5

f 22/3/5 26/3/5 162/3/5 212/3/5

f 157/3/5 156/3/5 141/3/5 140/3/5

f 182/3/5 205/3/5 207/3/5 210/3/5

f 173/3/5 39/3/5 189/3/5 188/3/5

f 166/3/5 218/3/5 177/3/5 184/3/5

f 161/3/5 160/3/5 193/3/5 192/3/5

f 217/3/5 140/3/5 77/3/5 70/3/5

f 224/3/5 129/3/5 132/3/5 225/3/5

f 193/3/5 87/3/5 80/3/5 79/3/5

f 226/3/5 203/3/5 84/3/5 83/3/5

f 27/3/5 23/3/5 219/3/5 148/3/5

f 219/3/5 172/3/5 129/3/5 224/3/5

f 29/3/5 32/3/5 118/3/5 220/3/5

f 181/3/5 213/3/5 227/3/5 144/3/5

f 155/3/5 198/3/5 175/3/5 156/3/5

f 202/3/5 188/3/5 121/3/5 171/3/5

f 225/3/5 132/3/5 199/3/5 228/3/5

f 138/3/5 195/3/5 198/3/5 155/3/5

f 191/3/5 116/3/5 120/3/5 218/3/5

f 169/3/5 95/3/5 88/3/5 87/3/5

f 139/3/5 138/3/5 155/3/5 154/3/5

f 122/3/5 220/3/5 190/3/5 123/3/5

f 33/3/5 36/3/5 5/3/5 152/3/5

f 211/3/5 192/3/5 194/3/5 65/3/5

f 220/3/5 118/3/5 113/3/5 190/3/5

f 153/3/5 181/3/5 144/3/5 143/3/5

f 124/3/5 123/3/5 165/3/5 164/3/5

f 229/3/5 143/3/5 146/3/5 205/3/5

f 148/3/5 219/3/5 224/3/5 149/3/5

f 128/3/5 127/3/5 196/3/5 195/3/5

f 12/3/5 229/3/5 205/3/5 182/3/5

f 230/3/5 154/3/5 157/3/5 216/3/5

f 149/3/5 224/3/5 225/3/5 208/3/5

f 26/3/5 38/3/5 147/3/5 162/3/5

f 135/3/5 216/3/5 217/3/5 54/3/5

f 198/3/5 197/3/5 158/3/5 175/3/5

f 210/3/5 207/3/5 186/3/5 185/3/5

f 65/3/5 194/3/5 92/3/5 91/3/5

f 178/3/5 112/3/5 96/3/5 95/3/5

f 137/3/5 128/3/5 195/3/5 138/3/5

f 201/3/5 170/3/5 125/3/5 179/3/5

f 176/3/5 161/3/5 192/3/5 211/3/5

f 48/3/5 153/3/5 143/3/5 229/3/5

f 39/3/5 42/3/5 29/3/5 189/3/5

f 180/3/5 212/3/5 213/3/5 181/3/5

f 200/3/5 202/3/5 171/3/5 170/3/5

f 16/3/5 44/3/5 33/3/5 151/3/5

f 168/3/5 178/3/5 95/3/5 169/3/5

f 218/3/5 120/3/5 109/3/5 177/3/5

f 45/3/5 48/3/5 229/3/5 12/3/5

f 194/3/5 79/3/5 99/3/5 92/3/5

f 231/3/5 139/3/5 154/3/5 230/3/5

f 126/3/5 124/3/5 164/3/5 127/3/5

f 38/3/5 27/3/5 148/3/5 147/3/5

f 187/2/5 232/2/5 133/2/5 74/2/5

f 186/2/5 223/2/5 232/2/5 187/2/5

f 207/2/5 206/2/5 223/2/5 186/2/5

f 50/3/5 226/3/5 83/3/5 101/3/5

f 133/1/5 233/1/5 226/1/5 50/1/5

f 232/1/5 234/1/5 233/1/5 133/1/5

f 223/1/5 222/1/5 234/1/5 232/1/5

f 222/1/5 235/1/5 236/1/5 234/1/5

f 221/1/5 237/1/5 235/1/5 222/1/5

f 234/1/5 236/1/5 238/1/5 233/1/5

f 236/1/5 239/1/5 240/1/5 238/1/5

f 235/1/5 241/1/5 239/1/5 236/1/5

f 237/1/5 242/1/5 241/1/5 235/1/5

f 145/1/5 243/1/5 237/1/5 221/1/5

f 243/1/5 244/1/5 242/1/5 237/1/5

f 242/1/5 245/1/5 246/1/5 241/1/5

f 241/1/5 246/1/5 247/1/5 239/1/5

f 239/1/5 247/1/5 248/1/5 240/1/5

f 244/1/5 215/1/5 245/1/5 242/1/5

f 247/1/5 249/1/5 231/1/5 248/1/5

f 246/1/5 250/1/5 249/1/5 247/1/5

f 245/1/5 251/1/5 250/1/5 246/1/5

f 215/1/5 214/1/5 251/1/5 245/1/5

f 250/1/5 252/1/5 136/1/5 249/1/5

f 251/1/5 253/1/5 252/1/5 250/1/5

f 214/1/5 228/1/5 253/1/5 251/1/5

f 240/1/5 248/1/5 254/1/5 204/1/5

f 248/1/5 231/1/5 230/1/5 254/1/5

f 255/1/5 209/1/5 215/1/5 244/1/5

f 227/1/5 255/1/5 244/1/5 243/1/5

f 254/2/5 230/2/5 216/2/5 135/2/5

f 204/2/5 254/2/5 135/2/5 134/2/5

f 238/2/5 240/2/5 204/2/5 203/2/5

f 233/2/5 238/2/5 203/2/5 226/2/5

f 249/2/5 136/2/5 139/2/5 231/2/5

f 252/2/5 179/2/5 137/2/5 136/2/5

f 253/2/5 201/2/5 179/2/5 252/2/5

f 228/2/5 199/2/5 201/2/5 253/2/5

f 208/2/5 225/2/5 228/2/5 214/2/5

f 163/2/5 150/2/5 209/2/5 255/2/5

f 213/2/5 163/2/5 255/2/5 227/2/5

f 144/2/5 227/2/5 243/2/5 145/2/5

f 146/2/5 145/2/5 221/2/5 206/2/5

f 256/3/6 257/3/6 258/3/6 259/3/6

f 260/3/6 261/3/6 262/3/6 263/3/6

f 264/3/6 265/3/6 266/3/6 267/3/6

f 75/3/6 52/3/6 51/3/6 268/3/6

f 269/3/6 56/3/6 55/3/6 270/3/6

f 271/3/6 272/3/6 273/3/6 274/3/6

f 275/3/6 78/3/6 276/3/6 277/3/6

f 278/3/6 279/3/6 280/3/6 281/3/6

f 282/3/6 283/3/6 284/3/6 285/3/6

f 286/3/6 267/3/6 287/3/6 34/3/6

f 2/3/6 47/3/6 288/3/6 3/3/6

f 289/3/6 290/3/6 291/3/6 292/3/6

f 293/3/6 294/3/6 295/3/6 296/3/6

f 297/3/6 298/3/6 283/3/6 282/3/6

f 299/3/6 300/3/6 301/3/6 302/3/6

f 296/3/6 295/3/6 303/3/6 304/3/6

f 305/3/6 260/3/6 263/3/6 306/3/6

f 307/3/6 264/3/6 267/3/6 286/3/6

f 287/3/6 308/3/6 309/3/6 6/3/6

f 310/3/6 311/3/6 294/3/6 293/3/6

f 267/3/6 266/3/6 308/3/6 287/3/6

f 312/3/6 313/3/6 111/3/6 110/3/6

f 314/3/6 274/3/6 261/3/6 260/3/6

f 78/3/6 60/3/6 59/3/6 276/3/6

f 3/3/6 288/3/6 315/3/6 316/3/6

f 6/3/6 309/3/6 40/3/6 7/3/6

f 10/3/6 104/3/6 317/3/6 11/3/6

f 318/3/6 296/3/6 304/3/6 319/3/6

f 320/3/6 63/3/6 321/3/6 322/3/6

f 323/3/6 256/3/6 259/3/6 324/3/6

f 325/3/6 326/3/6 115/3/6 114/3/6

f 327/3/6 328/3/6 82/3/6 329/3/6

f 330/3/6 331/3/6 332/3/6 333/3/6

f 334/3/6 335/3/6 305/3/6 336/3/6

f 266/3/6 336/3/6 337/3/6 308/3/6

f 338/3/6 85/3/6 269/3/6 339/3/6

f 340/3/6 341/3/6 342/3/6 279/3/6

f 106/3/6 64/3/6 63/3/6 320/3/6

f 283/3/6 343/3/6 344/3/6 284/3/6

f 291/3/6 277/3/6 311/3/6 310/3/6

f 104/3/6 108/3/6 345/3/6 317/3/6

f 14/3/6 307/3/6 286/3/6 15/3/6

f 277/3/6 276/3/6 346/3/6 311/3/6

f 276/3/6 59/3/6 66/3/6 346/3/6

f 347/3/6 348/3/6 298/3/6 297/3/6

f 332/3/6 293/3/6 296/3/6 318/3/6

f 343/3/6 349/3/6 350/3/6 344/3/6

f 85/3/6 68/3/6 56/3/6 269/3/6

f 108/3/6 106/3/6 320/3/6 345/3/6

f 351/3/6 352/3/6 275/3/6 290/3/6

f 18/3/6 3/3/6 316/3/6 19/3/6

f 300/3/6 318/3/6 319/3/6 301/3/6

f 262/3/6 333/3/6 300/3/6 299/3/6

f 55/3/6 72/3/6 71/3/6 352/3/6

f 19/3/6 316/3/6 347/3/6 21/3/6

f 295/3/6 329/3/6 90/3/6 303/3/6

f 302/3/6 301/3/6 353/3/6 326/3/6

f 24/3/6 354/3/6 307/3/6 14/3/6

f 258/3/6 302/3/6 326/3/6 325/3/6

f 333/3/6 332/3/6 318/3/6 300/3/6

f 306/3/6 263/3/6 257/3/6 256/3/6

f 319/3/6 304/3/6 313/3/6 312/3/6

f 324/3/6 259/3/6 355/3/6 30/3/6

f 342/2/6 356/2/6 357/2/6 358/2/6

f 308/3/6 337/3/6 323/3/6 309/3/6

f 63/3/6 76/3/6 75/3/6 321/3/6

f 265/3/6 334/3/6 336/3/6 266/3/6

f 21/3/6 347/3/6 297/3/6 25/3/6

f 290/3/6 275/3/6 277/3/6 291/3/6

f 317/3/6 345/3/6 341/3/6 340/3/6

f 309/3/6 323/3/6 324/3/6 40/3/6

f 301/3/6 319/3/6 312/3/6 353/3/6

f 294/3/6 327/3/6 329/3/6 295/3/6

f 352/3/6 71/3/6 78/3/6 275/3/6

f 359/3/6 360/3/6 265/3/6 264/3/6

f 329/3/6 82/3/6 81/3/6 90/3/6

f 361/3/6 86/3/6 85/3/6 338/3/6

f 28/3/6 285/3/6 354/3/6 24/3/6

f 354/3/6 359/3/6 264/3/6 307/3/6

f 30/3/6 355/3/6 117/3/6 31/3/6

f 315/3/6 281/3/6 362/3/6 348/3/6

f 292/3/6 291/3/6 310/3/6 331/3/6

f 337/3/6 306/3/6 256/3/6 323/3/6

f 360/3/6 363/3/6 334/3/6 265/3/6

f 273/3/6 292/3/6 331/3/6 330/3/6

f 326/3/6 353/3/6 119/3/6 115/3/6

f 303/3/6 90/3/6 89/3/6 98/3/6

f 272/3/6 289/3/6 292/3/6 273/3/6

f 259/3/6 258/3/6 325/3/6 355/3/6

f 34/3/6 287/3/6 6/3/6 35/3/6

f 346/3/6 66/3/6 328/3/6 327/3/6

f 355/3/6 325/3/6 114/3/6 117/3/6

f 288/3/6 278/3/6 281/3/6 315/3/6

f 257/3/6 299/3/6 302/3/6 258/3/6

f 364/3/6 340/3/6 279/3/6 278/3/6

f 285/3/6 284/3/6 359/3/6 354/3/6

f 261/3/6 330/3/6 333/3/6 262/3/6

f 11/3/6 317/3/6 340/3/6 364/3/6

f 365/3/6 351/3/6 290/3/6 289/3/6

f 284/3/6 344/3/6 360/3/6 359/3/6

f 25/3/6 297/3/6 282/3/6 37/3/6

f 270/3/6 55/3/6 352/3/6 351/3/6

f 331/3/6 310/3/6 293/3/6 332/3/6

f 345/3/6 320/3/6 322/3/6 341/3/6

f 66/3/6 94/3/6 93/3/6 328/3/6

f 313/3/6 98/3/6 97/3/6 111/3/6

f 274/3/6 273/3/6 330/3/6 261/3/6

f 335/3/6 314/3/6 260/3/6 305/3/6

f 311/3/6 346/3/6 327/3/6 294/3/6

f 47/3/6 364/3/6 278/3/6 288/3/6

f 40/3/6 324/3/6 30/3/6 41/3/6

f 316/3/6 315/3/6 348/3/6 347/3/6

f 336/3/6 305/3/6 306/3/6 337/3/6

f 15/3/6 286/3/6 34/3/6 43/3/6

f 304/3/6 303/3/6 98/3/6 313/3/6

f 353/3/6 312/3/6 110/3/6 119/3/6

f 46/3/6 11/3/6 364/3/6 47/3/6

f 328/3/6 93/3/6 100/3/6 82/3/6

f 366/3/6 365/3/6 289/3/6 272/3/6

f 263/3/6 262/3/6 299/3/6 257/3/6

f 37/3/6 282/3/6 285/3/6 28/3/6

f 321/2/6 75/2/6 268/2/6 367/2/6

f 322/2/6 321/2/6 367/2/6 356/2/6

f 341/2/6 322/2/6 356/2/6 342/2/6

f 51/3/6 102/3/6 86/3/6 361/3/6

f 268/1/6 51/1/6 361/1/6 368/1/6

f 367/1/6 268/1/6 368/1/6 369/1/6

f 356/1/6 367/1/6 369/1/6 357/1/6

f 357/1/6 369/1/6 370/1/6 371/1/6

f 358/1/6 357/1/6 371/1/6 372/1/6

f 369/1/6 368/1/6 373/1/6 370/1/6

f 370/1/6 373/1/6 374/1/6 375/1/6

f 371/1/6 370/1/6 375/1/6 376/1/6

f 372/1/6 371/1/6 376/1/6 377/1/6

f 280/1/6 358/1/6 372/1/6 378/1/6

f 378/1/6 372/1/6 377/1/6 379/1/6

f 377/1/6 376/1/6 380/1/6 381/1/6

f 376/1/6 375/1/6 382/1/6 380/1/6

f 375/1/6 374/1/6 383/1/6 382/1/6

f 379/1/6 377/1/6 381/1/6 349/1/6

f 382/1/6 383/1/6 366/1/6 384/1/6

f 380/1/6 382/1/6 384/1/6 385/1/6

f 381/1/6 380/1/6 385/1/6 386/1/6

f 349/1/6 381/1/6 386/1/6 350/1/6

f 385/1/6 384/1/6 271/1/6 387/1/6

f 386/1/6 385/1/6 387/1/6 388/1/6

f 350/1/6 386/1/6 388/1/6 363/1/6

f 374/1/6 339/1/6 389/1/6 383/1/6

f 383/1/6 389/1/6 365/1/6 366/1/6

f 390/1/6 379/1/6 349/1/6 343/1/6

f 362/1/6 378/1/6 379/1/6 390/1/6

f 389/2/6 270/2/6 351/2/6 365/2/6

f 339/2/6 269/2/6 270/2/6 389/2/6

f 373/2/6 338/2/6 339/2/6 374/2/6

f 368/2/6 361/2/6 338/2/6 373/2/6

f 384/2/6 366/2/6 272/2/6 271/2/6

f 387/2/6 271/2/6 274/2/6 314/2/6

f 388/2/6 387/2/6 314/2/6 335/2/6

f 363/2/6 388/2/6 335/2/6 334/2/6

f 344/2/6 350/2/6 363/2/6 360/2/6

f 298/2/6 390/2/6 343/2/6 283/2/6

f 348/2/6 362/2/6 390/2/6 298/2/6

f 281/2/6 280/2/6 378/2/6 362/2/6

f 279/2/6 342/2/6 358/2/6 280/2/6

# numNormals 6
# numTexCoords 3
# numVerts 390
# numFaces 388
