# MagicaVoxel @ ephtracy

# material
mtllib cheddarcheese.mtl

# normals
vn -1 0 0
vn 1 0 0
vn 0 0 1
vn 0 0 -1
vn 0 -1 0
vn 0 1 0

# texcoords
vt 0.0175781 0.5

# verts
v -8.5 0 -10.5
v -8.5 1 -10.5
v -8.5 1 -11.5
v -8.5 0 -11.5
v -8.5 1 -12.5
v -8.5 0 -12.5
v -8.5 0 -20.5
v -8.5 1 -20.5
v -8.5 1 -21.5
v -8.5 0 -21.5
v -8.5 1 -13.5
v -8.5 0 -13.5
v -8.5 0 -8.5
v -8.5 1 -8.5
v -8.5 1 -9.5
v -8.5 0 -9.5
v -8.5 1 -14.5
v -8.5 0 -14.5
v -8.5 1 -15.5
v -8.5 0 -15.5
v -8.5 0 -16.5
v -8.5 1 -16.5
v -8.5 1 -17.5
v -8.5 0 -17.5
v -8.5 0 -19.5
v -8.5 1 -19.5
v -8.5 1 -18.5
v -8.5 0 -18.5
v 4.5 0 -10.5
v 4.5 0 -11.5
v 4.5 1 -11.5
v 4.5 1 -10.5
v 4.5 0 -20.5
v 4.5 0 -21.5
v 4.5 1 -21.5
v 4.5 1 -20.5
v 4.5 0 -9.5
v 4.5 1 -9.5
v 4.5 0 -15.5
v 4.5 0 -16.5
v 4.5 1 -16.5
v 4.5 1 -15.5
v 4.5 0 -12.5
v 4.5 0 -13.5
v 4.5 1 -13.5
v 4.5 1 -12.5
v 4.5 0 -14.5
v 4.5 1 -14.5
v 4.5 0 -19.5
v 4.5 1 -19.5
v 4.5 0 -17.5
v 4.5 1 -17.5
v 4.5 0 -18.5
v 4.5 1 -18.5
v 4.5 0 -8.5
v 4.5 1 -8.5
v -4.5 0 -8.5
v -3.5 0 -8.5
v -3.5 1 -8.5
v -4.5 1 -8.5
v -2.5 0 -8.5
v -2.5 1 -8.5
v -1.5 0 -8.5
v -1.5 1 -8.5
v -0.5 0 -8.5
v -0.5 1 -8.5
v 0.5 0 -8.5
v 0.5 1 -8.5
v 1.5 0 -8.5
v 1.5 1 -8.5
v 2.5 0 -8.5
v 2.5 1 -8.5
v -6.5 0 -8.5
v -5.5 0 -8.5
v -5.5 1 -8.5
v -6.5 1 -8.5
v -7.5 0 -8.5
v -7.5 1 -8.5
v 3.5 0 -8.5
v 3.5 1 -8.5
v 1.5 0 -21.5
v 1.5 1 -21.5
v 2.5 1 -21.5
v 2.5 0 -21.5
v 3.5 0 -21.5
v 3.5 1 -21.5
v -7.5 0 -21.5
v -7.5 1 -21.5
v -6.5 1 -21.5
v -6.5 0 -21.5
v -1.5 0 -21.5
v -1.5 1 -21.5
v -0.5 1 -21.5
v -0.5 0 -21.5
v -2.5 0 -21.5
v -2.5 1 -21.5
v -3.5 0 -21.5
v -3.5 1 -21.5
v -5.5 1 -21.5
v -5.5 0 -21.5
v 0.5 1 -21.5
v 0.5 0 -21.5
v -4.5 1 -21.5
v -4.5 0 -21.5
v 3.5 0 -10.5
v 3.5 0 -11.5
v -4.5 0 -9.5
v -3.5 0 -9.5
v -2.5 0 -9.5
v -1.5 0 -9.5
v -0.5 0 -9.5
v 0.5 0 -9.5
v 1.5 0 -9.5
v -6.5 0 -9.5
v -6.5 0 -10.5
v -5.5 0 -10.5
v -5.5 0 -9.5
v -4.5 0 -10.5
v -7.5 0 -11.5
v -7.5 0 -10.5
v -3.5 0 -10.5
v -2.5 0 -10.5
v -1.5 0 -10.5
v 1.5 0 -20.5
v 2.5 0 -20.5
v -0.5 0 -10.5
v 0.5 0 -10.5
v 2.5 0 -9.5
v 1.5 0 -10.5
v 2.5 0 -10.5
v -6.5 0 -11.5
v 3.5 0 -20.5
v -7.5 0 -19.5
v -7.5 0 -20.5
v -6.5 0 -20.5
v -6.5 0 -19.5
v -4.5 0 -11.5
v -3.5 0 -11.5
v 3.5 0 -9.5
v -2.5 0 -11.5
v -1.5 0 -11.5
v -0.5 0 -11.5
v 0.5 0 -11.5
v 1.5 0 -11.5
v 2.5 0 -11.5
v -7.5 0 -12.5
v 3.5 0 -15.5
v 3.5 0 -16.5
v -4.5 0 -12.5
v -3.5 0 -12.5
v -2.5 0 -12.5
v -1.5 0 -12.5
v -0.5 0 -12.5
v 0.5 0 -12.5
v 1.5 0 -12.5
v 2.5 0 -12.5
v 3.5 0 -12.5
v -7.5 0 -9.5
v -7.5 0 -13.5
v -6.5 0 -13.5
v -6.5 0 -12.5
v -5.5 0 -13.5
v -5.5 0 -12.5
v -4.5 0 -13.5
v -5.5 0 -11.5
v -3.5 0 -13.5
v -2.5 0 -13.5
v -1.5 0 -13.5
v -0.5 0 -13.5
v 0.5 0 -13.5
v 1.5 0 -13.5
v 2.5 0 -13.5
v 3.5 0 -13.5
v -7.5 0 -14.5
v -6.5 0 -14.5
v -5.5 0 -14.5
v -4.5 0 -14.5
v -3.5 0 -14.5
v -2.5 0 -14.5
v -1.5 0 -14.5
v -0.5 0 -14.5
v 0.5 0 -14.5
v 1.5 0 -14.5
v 2.5 0 -14.5
v 3.5 0 -14.5
v -7.5 0 -15.5
v -6.5 0 -15.5
v -5.5 0 -15.5
v -7.5 0 -17.5
v -7.5 0 -16.5
v -4.5 0 -15.5
v -3.5 0 -15.5
v -2.5 0 -15.5
v -1.5 0 -20.5
v -0.5 0 -20.5
v -1.5 0 -15.5
v -0.5 0 -15.5
v 0.5 0 -15.5
v 3.5 0 -19.5
v 1.5 0 -15.5
v 2.5 0 -15.5
v -6.5 0 -16.5
v -5.5 0 -16.5
v -4.5 0 -16.5
v -3.5 0 -16.5
v -2.5 0 -16.5
v -1.5 0 -16.5
v -0.5 0 -16.5
v 0.5 0 -16.5
v 1.5 0 -16.5
v 2.5 0 -16.5
v -2.5 0 -20.5
v -3.5 0 -20.5
v -6.5 0 -17.5
v -5.5 0 -17.5
v -4.5 0 -17.5
v -3.5 0 -17.5
v -2.5 0 -17.5
v -1.5 0 -17.5
v -0.5 0 -17.5
v 0.5 0 -17.5
v 1.5 0 -17.5
v 2.5 0 -17.5
v 3.5 0 -17.5
v -7.5 0 -18.5
v -6.5 0 -18.5
v -5.5 0 -18.5
v -4.5 0 -18.5
v -5.5 0 -20.5
v -3.5 0 -18.5
v -2.5 0 -18.5
v -1.5 0 -18.5
v -0.5 0 -18.5
v 0.5 0 -18.5
v 1.5 0 -18.5
v 2.5 0 -18.5
v 3.5 0 -18.5
v -5.5 0 -19.5
v -4.5 0 -19.5
v -3.5 0 -19.5
v -2.5 0 -19.5
v 0.5 0 -20.5
v -1.5 0 -19.5
v -0.5 0 -19.5
v 0.5 0 -19.5
v 1.5 0 -19.5
v 2.5 0 -19.5
v -4.5 0 -20.5
v 3.5 1 -10.5
v 3.5 1 -11.5
v -3.5 1 -9.5
v -4.5 1 -9.5
v -2.5 1 -9.5
v -1.5 1 -9.5
v -0.5 1 -9.5
v 0.5 1 -9.5
v 1.5 1 -9.5
v -6.5 1 -9.5
v -5.5 1 -9.5
v -5.5 1 -10.5
v -6.5 1 -10.5
v -4.5 1 -10.5
v -7.5 1 -10.5
v -7.5 1 -11.5
v -2.5 1 -10.5
v -3.5 1 -10.5
v -1.5 1 -10.5
v 1.5 1 -20.5
v 2.5 1 -20.5
v 0.5 1 -10.5
v -0.5 1 -10.5
v 2.5 1 -9.5
v 2.5 1 -10.5
v 1.5 1 -10.5
v -6.5 1 -11.5
v 3.5 1 -20.5
v -7.5 1 -19.5
v -6.5 1 -19.5
v -6.5 1 -20.5
v -7.5 1 -20.5
v -3.5 1 -11.5
v -4.5 1 -11.5
v 3.5 1 -9.5
v -1.5 1 -11.5
v -2.5 1 -11.5
v -0.5 1 -11.5
v 0.5 1 -11.5
v 1.5 1 -11.5
v 2.5 1 -11.5
v -7.5 1 -12.5
v 3.5 1 -15.5
v 3.5 1 -16.5
v -3.5 1 -12.5
v -4.5 1 -12.5
v -2.5 1 -12.5
v -1.5 1 -12.5
v -0.5 1 -12.5
v 0.5 1 -12.5
v 1.5 1 -12.5
v 3.5 1 -12.5
v 2.5 1 -12.5
v -7.5 1 -9.5
v -7.5 1 -13.5
v -6.5 1 -12.5
v -6.5 1 -13.5
v -5.5 1 -12.5
v -5.5 1 -13.5
v -4.5 1 -13.5
v -5.5 1 -11.5
v -2.5 1 -13.5
v -3.5 1 -13.5
v -1.5 1 -13.5
v 0.5 1 -13.5
v -0.5 1 -13.5
v 1.5 1 -13.5
v 2.5 1 -13.5
v 3.5 1 -13.5
v -7.5 1 -14.5
v -5.5 1 -14.5
v -6.5 1 -14.5
v -4.5 1 -14.5
v -3.5 1 -14.5
v -2.5 1 -14.5
v -1.5 1 -14.5
v -0.5 1 -14.5
v 0.5 1 -14.5
v 1.5 1 -14.5
v 2.5 1 -14.5
v 3.5 1 -14.5
v -7.5 1 -15.5
v -6.5 1 -15.5
v -5.5 1 -15.5
v -7.5 1 -16.5
v -7.5 1 -17.5
v -3.5 1 -15.5
v -4.5 1 -15.5
v -2.5 1 -15.5
v -1.5 1 -20.5
v -0.5 1 -20.5
v -0.5 1 -15.5
v -1.5 1 -15.5
v 0.5 1 -15.5
v 3.5 1 -19.5
v 2.5 1 -15.5
v 1.5 1 -15.5
v -6.5 1 -16.5
v -5.5 1 -16.5
v -4.5 1 -16.5
v -2.5 1 -16.5
v -3.5 1 -16.5
v -1.5 1 -16.5
v -0.5 1 -16.5
v 0.5 1 -16.5
v 1.5 1 -16.5
v 2.5 1 -16.5
v -2.5 1 -20.5
v -3.5 1 -20.5
v -6.5 1 -17.5
v -4.5 1 -17.5
v -5.5 1 -17.5
v -3.5 1 -17.5
v -2.5 1 -17.5
v -1.5 1 -17.5
v 0.5 1 -17.5
v -0.5 1 -17.5
v 1.5 1 -17.5
v 2.5 1 -17.5
v 3.5 1 -17.5
v -7.5 1 -18.5
v -6.5 1 -18.5
v -5.5 1 -18.5
v -4.5 1 -18.5
v -5.5 1 -20.5
v -2.5 1 -18.5
v -3.5 1 -18.5
v -1.5 1 -18.5
v -0.5 1 -18.5
v 0.5 1 -18.5
v 1.5 1 -18.5
v 3.5 1 -18.5
v 2.5 1 -18.5
v -5.5 1 -19.5
v -4.5 1 -19.5
v -3.5 1 -19.5
v -2.5 1 -19.5
v 0.5 1 -20.5
v -0.5 1 -19.5
v -1.5 1 -19.5
v 0.5 1 -19.5
v 1.5 1 -19.5
v 2.5 1 -19.5
v -4.5 1 -20.5

# faces

usemtl palette

f 1/1/1 2/1/1 3/1/1 4/1/1

f 4/1/1 3/1/1 5/1/1 6/1/1

f 7/1/1 8/1/1 9/1/1 10/1/1

f 6/1/1 5/1/1 11/1/1 12/1/1

f 13/1/1 14/1/1 15/1/1 16/1/1

f 12/1/1 11/1/1 17/1/1 18/1/1

f 18/1/1 17/1/1 19/1/1 20/1/1

f 21/1/1 22/1/1 23/1/1 24/1/1

f 20/1/1 19/1/1 22/1/1 21/1/1

f 16/1/1 15/1/1 2/1/1 1/1/1

f 25/1/1 26/1/1 8/1/1 7/1/1

f 24/1/1 23/1/1 27/1/1 28/1/1

f 28/1/1 27/1/1 26/1/1 25/1/1

f 29/1/2 30/1/2 31/1/2 32/1/2

f 33/1/2 34/1/2 35/1/2 36/1/2

f 37/1/2 29/1/2 32/1/2 38/1/2

f 39/1/2 40/1/2 41/1/2 42/1/2

f 43/1/2 44/1/2 45/1/2 46/1/2

f 30/1/2 43/1/2 46/1/2 31/1/2

f 44/1/2 47/1/2 48/1/2 45/1/2

f 49/1/2 33/1/2 36/1/2 50/1/2

f 47/1/2 39/1/2 42/1/2 48/1/2

f 40/1/2 51/1/2 52/1/2 41/1/2

f 51/1/2 53/1/2 54/1/2 52/1/2

f 53/1/2 49/1/2 50/1/2 54/1/2

f 55/1/2 37/1/2 38/1/2 56/1/2

f 57/1/3 58/1/3 59/1/3 60/1/3

f 58/1/3 61/1/3 62/1/3 59/1/3

f 61/1/3 63/1/3 64/1/3 62/1/3

f 63/1/3 65/1/3 66/1/3 64/1/3

f 65/1/3 67/1/3 68/1/3 66/1/3

f 67/1/3 69/1/3 70/1/3 68/1/3

f 69/1/3 71/1/3 72/1/3 70/1/3

f 73/1/3 74/1/3 75/1/3 76/1/3

f 77/1/3 73/1/3 76/1/3 78/1/3

f 13/1/3 77/1/3 78/1/3 14/1/3

f 74/1/3 57/1/3 60/1/3 75/1/3

f 71/1/3 79/1/3 80/1/3 72/1/3

f 79/1/3 55/1/3 56/1/3 80/1/3

f 81/1/4 82/1/4 83/1/4 84/1/4

f 85/1/4 86/1/4 35/1/4 34/1/4

f 87/1/4 88/1/4 89/1/4 90/1/4

f 10/1/4 9/1/4 88/1/4 87/1/4

f 91/1/4 92/1/4 93/1/4 94/1/4

f 95/1/4 96/1/4 92/1/4 91/1/4

f 97/1/4 98/1/4 96/1/4 95/1/4

f 90/1/4 89/1/4 99/1/4 100/1/4

f 94/1/4 93/1/4 101/1/4 102/1/4

f 84/1/4 83/1/4 86/1/4 85/1/4

f 102/1/4 101/1/4 82/1/4 81/1/4

f 100/1/4 99/1/4 103/1/4 104/1/4

f 104/1/4 103/1/4 98/1/4 97/1/4

f 105/1/5 106/1/5 30/1/5 29/1/5

f 57/1/5 107/1/5 108/1/5 58/1/5

f 58/1/5 108/1/5 109/1/5 61/1/5

f 61/1/5 109/1/5 110/1/5 63/1/5

f 63/1/5 110/1/5 111/1/5 65/1/5

f 65/1/5 111/1/5 112/1/5 67/1/5

f 67/1/5 112/1/5 113/1/5 69/1/5

f 114/1/5 115/1/5 116/1/5 117/1/5

f 117/1/5 116/1/5 118/1/5 107/1/5

f 1/1/5 4/1/5 119/1/5 120/1/5

f 108/1/5 121/1/5 122/1/5 109/1/5

f 109/1/5 122/1/5 123/1/5 110/1/5

f 124/1/5 81/1/5 84/1/5 125/1/5

f 111/1/5 126/1/5 127/1/5 112/1/5

f 69/1/5 113/1/5 128/1/5 71/1/5

f 113/1/5 129/1/5 130/1/5 128/1/5

f 120/1/5 119/1/5 131/1/5 115/1/5

f 132/1/5 85/1/5 34/1/5 33/1/5

f 133/1/5 134/1/5 135/1/5 136/1/5

f 118/1/5 137/1/5 138/1/5 121/1/5

f 139/1/5 105/1/5 29/1/5 37/1/5

f 122/1/5 140/1/5 141/1/5 123/1/5

f 123/1/5 141/1/5 142/1/5 126/1/5

f 126/1/5 142/1/5 143/1/5 127/1/5

f 127/1/5 143/1/5 144/1/5 129/1/5

f 129/1/5 144/1/5 145/1/5 130/1/5

f 130/1/5 145/1/5 106/1/5 105/1/5

f 4/1/5 6/1/5 146/1/5 119/1/5

f 147/1/5 148/1/5 40/1/5 39/1/5

f 134/1/5 87/1/5 90/1/5 135/1/5

f 7/1/5 10/1/5 87/1/5 134/1/5

f 137/1/5 149/1/5 150/1/5 138/1/5

f 138/1/5 150/1/5 151/1/5 140/1/5

f 140/1/5 151/1/5 152/1/5 141/1/5

f 141/1/5 152/1/5 153/1/5 142/1/5

f 142/1/5 153/1/5 154/1/5 143/1/5

f 143/1/5 154/1/5 155/1/5 144/1/5

f 73/1/5 114/1/5 117/1/5 74/1/5

f 145/1/5 156/1/5 157/1/5 106/1/5

f 77/1/5 158/1/5 114/1/5 73/1/5

f 6/1/5 12/1/5 159/1/5 146/1/5

f 146/1/5 159/1/5 160/1/5 161/1/5

f 161/1/5 160/1/5 162/1/5 163/1/5

f 163/1/5 162/1/5 164/1/5 149/1/5

f 131/1/5 161/1/5 163/1/5 165/1/5

f 150/1/5 166/1/5 167/1/5 151/1/5

f 151/1/5 167/1/5 168/1/5 152/1/5

f 13/1/5 16/1/5 158/1/5 77/1/5

f 153/1/5 169/1/5 170/1/5 154/1/5

f 154/1/5 170/1/5 171/1/5 155/1/5

f 155/1/5 171/1/5 172/1/5 156/1/5

f 156/1/5 172/1/5 173/1/5 157/1/5

f 157/1/5 173/1/5 44/1/5 43/1/5

f 12/1/5 18/1/5 174/1/5 159/1/5

f 116/1/5 165/1/5 137/1/5 118/1/5

f 160/1/5 175/1/5 176/1/5 162/1/5

f 162/1/5 176/1/5 177/1/5 164/1/5

f 164/1/5 177/1/5 178/1/5 166/1/5

f 166/1/5 178/1/5 179/1/5 167/1/5

f 167/1/5 179/1/5 180/1/5 168/1/5

f 168/1/5 180/1/5 181/1/5 169/1/5

f 169/1/5 181/1/5 182/1/5 170/1/5

f 170/1/5 182/1/5 183/1/5 171/1/5

f 171/1/5 183/1/5 184/1/5 172/1/5

f 106/1/5 157/1/5 43/1/5 30/1/5

f 173/1/5 185/1/5 47/1/5 44/1/5

f 18/1/5 20/1/5 186/1/5 174/1/5

f 174/1/5 186/1/5 187/1/5 175/1/5

f 175/1/5 187/1/5 188/1/5 176/1/5

f 21/1/5 24/1/5 189/1/5 190/1/5

f 177/1/5 191/1/5 192/1/5 178/1/5

f 178/1/5 192/1/5 193/1/5 179/1/5

f 194/1/5 91/1/5 94/1/5 195/1/5

f 180/1/5 196/1/5 197/1/5 181/1/5

f 181/1/5 197/1/5 198/1/5 182/1/5

f 199/1/5 132/1/5 33/1/5 49/1/5

f 183/1/5 200/1/5 201/1/5 184/1/5

f 184/1/5 201/1/5 147/1/5 185/1/5

f 185/1/5 147/1/5 39/1/5 47/1/5

f 20/1/5 21/1/5 190/1/5 186/1/5

f 186/1/5 190/1/5 202/1/5 187/1/5

f 187/1/5 202/1/5 203/1/5 188/1/5

f 188/1/5 203/1/5 204/1/5 191/1/5

f 165/1/5 163/1/5 149/1/5 137/1/5

f 192/1/5 205/1/5 206/1/5 193/1/5

f 193/1/5 206/1/5 207/1/5 196/1/5

f 196/1/5 207/1/5 208/1/5 197/1/5

f 197/1/5 208/1/5 209/1/5 198/1/5

f 198/1/5 209/1/5 210/1/5 200/1/5

f 200/1/5 210/1/5 211/1/5 201/1/5

f 212/1/5 95/1/5 91/1/5 194/1/5

f 16/1/5 1/1/5 120/1/5 158/1/5

f 213/1/5 97/1/5 95/1/5 212/1/5

f 190/1/5 189/1/5 214/1/5 202/1/5

f 25/1/5 7/1/5 134/1/5 133/1/5

f 203/1/5 215/1/5 216/1/5 204/1/5

f 204/1/5 216/1/5 217/1/5 205/1/5

f 205/1/5 217/1/5 218/1/5 206/1/5

f 206/1/5 218/1/5 219/1/5 207/1/5

f 74/1/5 117/1/5 107/1/5 57/1/5

f 208/1/5 220/1/5 221/1/5 209/1/5

f 209/1/5 221/1/5 222/1/5 210/1/5

f 210/1/5 222/1/5 223/1/5 211/1/5

f 211/1/5 223/1/5 224/1/5 148/1/5

f 148/1/5 224/1/5 51/1/5 40/1/5

f 24/1/5 28/1/5 225/1/5 189/1/5

f 189/1/5 225/1/5 226/1/5 214/1/5

f 214/1/5 226/1/5 227/1/5 215/1/5

f 215/1/5 227/1/5 228/1/5 216/1/5

f 135/1/5 90/1/5 100/1/5 229/1/5

f 217/1/5 230/1/5 231/1/5 218/1/5

f 218/1/5 231/1/5 232/1/5 219/1/5

f 219/1/5 232/1/5 233/1/5 220/1/5

f 220/1/5 233/1/5 234/1/5 221/1/5

f 221/1/5 234/1/5 235/1/5 222/1/5

f 71/1/5 128/1/5 139/1/5 79/1/5

f 223/1/5 236/1/5 237/1/5 224/1/5

f 224/1/5 237/1/5 53/1/5 51/1/5

f 28/1/5 25/1/5 133/1/5 225/1/5

f 226/1/5 136/1/5 238/1/5 227/1/5

f 227/1/5 238/1/5 239/1/5 228/1/5

f 228/1/5 239/1/5 240/1/5 230/1/5

f 230/1/5 240/1/5 241/1/5 231/1/5

f 195/1/5 94/1/5 102/1/5 242/1/5

f 232/1/5 243/1/5 244/1/5 233/1/5

f 233/1/5 244/1/5 245/1/5 234/1/5

f 234/1/5 245/1/5 246/1/5 235/1/5

f 235/1/5 246/1/5 247/1/5 236/1/5

f 236/1/5 247/1/5 199/1/5 237/1/5

f 237/1/5 199/1/5 49/1/5 53/1/5

f 238/1/5 229/1/5 248/1/5 239/1/5

f 125/1/5 84/1/5 85/1/5 132/1/5

f 240/1/5 213/1/5 212/1/5 241/1/5

f 241/1/5 212/1/5 194/1/5 243/1/5

f 243/1/5 194/1/5 195/1/5 244/1/5

f 242/1/5 102/1/5 81/1/5 124/1/5

f 245/1/5 242/1/5 124/1/5 246/1/5

f 246/1/5 124/1/5 125/1/5 247/1/5

f 229/1/5 100/1/5 104/1/5 248/1/5

f 248/1/5 104/1/5 97/1/5 213/1/5

f 79/1/5 139/1/5 37/1/5 55/1/5

f 112/1/5 127/1/5 129/1/5 113/1/5

f 128/1/5 130/1/5 105/1/5 139/1/5

f 144/1/5 155/1/5 156/1/5 145/1/5

f 110/1/5 123/1/5 126/1/5 111/1/5

f 152/1/5 168/1/5 169/1/5 153/1/5

f 121/1/5 138/1/5 140/1/5 122/1/5

f 107/1/5 118/1/5 121/1/5 108/1/5

f 149/1/5 164/1/5 166/1/5 150/1/5

f 115/1/5 131/1/5 165/1/5 116/1/5

f 158/1/5 120/1/5 115/1/5 114/1/5

f 119/1/5 146/1/5 161/1/5 131/1/5

f 239/1/5 248/1/5 213/1/5 240/1/5

f 159/1/5 174/1/5 175/1/5 160/1/5

f 176/1/5 188/1/5 191/1/5 177/1/5

f 191/1/5 204/1/5 205/1/5 192/1/5

f 179/1/5 193/1/5 196/1/5 180/1/5

f 182/1/5 198/1/5 200/1/5 183/1/5

f 172/1/5 184/1/5 185/1/5 173/1/5

f 201/1/5 211/1/5 148/1/5 147/1/5

f 222/1/5 235/1/5 236/1/5 223/1/5

f 247/1/5 125/1/5 132/1/5 199/1/5

f 207/1/5 219/1/5 220/1/5 208/1/5

f 244/1/5 195/1/5 242/1/5 245/1/5

f 231/1/5 241/1/5 243/1/5 232/1/5

f 216/1/5 228/1/5 230/1/5 217/1/5

f 202/1/5 214/1/5 215/1/5 203/1/5

f 225/1/5 133/1/5 136/1/5 226/1/5

f 136/1/5 135/1/5 229/1/5 238/1/5

f 249/1/6 32/1/6 31/1/6 250/1/6

f 60/1/6 59/1/6 251/1/6 252/1/6

f 59/1/6 62/1/6 253/1/6 251/1/6

f 62/1/6 64/1/6 254/1/6 253/1/6

f 64/1/6 66/1/6 255/1/6 254/1/6

f 66/1/6 68/1/6 256/1/6 255/1/6

f 68/1/6 70/1/6 257/1/6 256/1/6

f 258/1/6 259/1/6 260/1/6 261/1/6

f 259/1/6 252/1/6 262/1/6 260/1/6

f 2/1/6 263/1/6 264/1/6 3/1/6

f 251/1/6 253/1/6 265/1/6 266/1/6

f 253/1/6 254/1/6 267/1/6 265/1/6

f 268/1/6 269/1/6 83/1/6 82/1/6

f 255/1/6 256/1/6 270/1/6 271/1/6

f 70/1/6 72/1/6 272/1/6 257/1/6

f 257/1/6 272/1/6 273/1/6 274/1/6

f 263/1/6 261/1/6 275/1/6 264/1/6

f 276/1/6 36/1/6 35/1/6 86/1/6

f 277/1/6 278/1/6 279/1/6 280/1/6

f 262/1/6 266/1/6 281/1/6 282/1/6

f 283/1/6 38/1/6 32/1/6 249/1/6

f 265/1/6 267/1/6 284/1/6 285/1/6

f 267/1/6 271/1/6 286/1/6 284/1/6

f 271/1/6 270/1/6 287/1/6 286/1/6

f 270/1/6 274/1/6 288/1/6 287/1/6

f 274/1/6 273/1/6 289/1/6 288/1/6

f 273/1/6 249/1/6 250/1/6 289/1/6

f 3/1/6 264/1/6 290/1/6 5/1/6

f 291/1/6 42/1/6 41/1/6 292/1/6

f 280/1/6 279/1/6 89/1/6 88/1/6

f 8/1/6 280/1/6 88/1/6 9/1/6

f 282/1/6 281/1/6 293/1/6 294/1/6

f 281/1/6 285/1/6 295/1/6 293/1/6

f 285/1/6 284/1/6 296/1/6 295/1/6

f 284/1/6 286/1/6 297/1/6 296/1/6

f 286/1/6 287/1/6 298/1/6 297/1/6

f 287/1/6 288/1/6 299/1/6 298/1/6

f 76/1/6 75/1/6 259/1/6 258/1/6

f 289/1/6 250/1/6 300/1/6 301/1/6

f 78/1/6 76/1/6 258/1/6 302/1/6

f 5/1/6 290/1/6 303/1/6 11/1/6

f 290/1/6 304/1/6 305/1/6 303/1/6

f 304/1/6 306/1/6 307/1/6 305/1/6

f 306/1/6 294/1/6 308/1/6 307/1/6

f 275/1/6 309/1/6 306/1/6 304/1/6

f 293/1/6 295/1/6 310/1/6 311/1/6

f 295/1/6 296/1/6 312/1/6 310/1/6

f 14/1/6 78/1/6 302/1/6 15/1/6

f 297/1/6 298/1/6 313/1/6 314/1/6

f 298/1/6 299/1/6 315/1/6 313/1/6

f 299/1/6 301/1/6 316/1/6 315/1/6

f 301/1/6 300/1/6 317/1/6 316/1/6

f 300/1/6 46/1/6 45/1/6 317/1/6

f 11/1/6 303/1/6 318/1/6 17/1/6

f 260/1/6 262/1/6 282/1/6 309/1/6

f 305/1/6 307/1/6 319/1/6 320/1/6

f 307/1/6 308/1/6 321/1/6 319/1/6

f 308/1/6 311/1/6 322/1/6 321/1/6

f 311/1/6 310/1/6 323/1/6 322/1/6

f 310/1/6 312/1/6 324/1/6 323/1/6

f 312/1/6 314/1/6 325/1/6 324/1/6

f 314/1/6 313/1/6 326/1/6 325/1/6

f 313/1/6 315/1/6 327/1/6 326/1/6

f 315/1/6 316/1/6 328/1/6 327/1/6

f 250/1/6 31/1/6 46/1/6 300/1/6

f 317/1/6 45/1/6 48/1/6 329/1/6

f 17/1/6 318/1/6 330/1/6 19/1/6

f 318/1/6 320/1/6 331/1/6 330/1/6

f 320/1/6 319/1/6 332/1/6 331/1/6

f 22/1/6 333/1/6 334/1/6 23/1/6

f 321/1/6 322/1/6 335/1/6 336/1/6

f 322/1/6 323/1/6 337/1/6 335/1/6

f 338/1/6 339/1/6 93/1/6 92/1/6

f 324/1/6 325/1/6 340/1/6 341/1/6

f 325/1/6 326/1/6 342/1/6 340/1/6

f 343/1/6 50/1/6 36/1/6 276/1/6

f 327/1/6 328/1/6 344/1/6 345/1/6

f 328/1/6 329/1/6 291/1/6 344/1/6

f 329/1/6 48/1/6 42/1/6 291/1/6

f 19/1/6 330/1/6 333/1/6 22/1/6

f 330/1/6 331/1/6 346/1/6 333/1/6

f 331/1/6 332/1/6 347/1/6 346/1/6

f 332/1/6 336/1/6 348/1/6 347/1/6

f 309/1/6 282/1/6 294/1/6 306/1/6

f 335/1/6 337/1/6 349/1/6 350/1/6

f 337/1/6 341/1/6 351/1/6 349/1/6

f 341/1/6 340/1/6 352/1/6 351/1/6

f 340/1/6 342/1/6 353/1/6 352/1/6

f 342/1/6 345/1/6 354/1/6 353/1/6

f 345/1/6 344/1/6 355/1/6 354/1/6

f 356/1/6 338/1/6 92/1/6 96/1/6

f 15/1/6 302/1/6 263/1/6 2/1/6

f 357/1/6 356/1/6 96/1/6 98/1/6

f 333/1/6 346/1/6 358/1/6 334/1/6

f 26/1/6 277/1/6 280/1/6 8/1/6

f 347/1/6 348/1/6 359/1/6 360/1/6

f 348/1/6 350/1/6 361/1/6 359/1/6

f 350/1/6 349/1/6 362/1/6 361/1/6

f 349/1/6 351/1/6 363/1/6 362/1/6

f 75/1/6 60/1/6 252/1/6 259/1/6

f 352/1/6 353/1/6 364/1/6 365/1/6

f 353/1/6 354/1/6 366/1/6 364/1/6

f 354/1/6 355/1/6 367/1/6 366/1/6

f 355/1/6 292/1/6 368/1/6 367/1/6

f 292/1/6 41/1/6 52/1/6 368/1/6

f 23/1/6 334/1/6 369/1/6 27/1/6

f 334/1/6 358/1/6 370/1/6 369/1/6

f 358/1/6 360/1/6 371/1/6 370/1/6

f 360/1/6 359/1/6 372/1/6 371/1/6

f 279/1/6 373/1/6 99/1/6 89/1/6

f 361/1/6 362/1/6 374/1/6 375/1/6

f 362/1/6 363/1/6 376/1/6 374/1/6

f 363/1/6 365/1/6 377/1/6 376/1/6

f 365/1/6 364/1/6 378/1/6 377/1/6

f 364/1/6 366/1/6 379/1/6 378/1/6

f 72/1/6 80/1/6 283/1/6 272/1/6

f 367/1/6 368/1/6 380/1/6 381/1/6

f 368/1/6 52/1/6 54/1/6 380/1/6

f 27/1/6 369/1/6 277/1/6 26/1/6

f 370/1/6 371/1/6 382/1/6 278/1/6

f 371/1/6 372/1/6 383/1/6 382/1/6

f 372/1/6 375/1/6 384/1/6 383/1/6

f 375/1/6 374/1/6 385/1/6 384/1/6

f 339/1/6 386/1/6 101/1/6 93/1/6

f 376/1/6 377/1/6 387/1/6 388/1/6

f 377/1/6 378/1/6 389/1/6 387/1/6

f 378/1/6 379/1/6 390/1/6 389/1/6

f 379/1/6 381/1/6 391/1/6 390/1/6

f 381/1/6 380/1/6 343/1/6 391/1/6

f 380/1/6 54/1/6 50/1/6 343/1/6

f 382/1/6 383/1/6 392/1/6 373/1/6

f 269/1/6 276/1/6 86/1/6 83/1/6

f 384/1/6 385/1/6 356/1/6 357/1/6

f 385/1/6 388/1/6 338/1/6 356/1/6

f 388/1/6 387/1/6 339/1/6 338/1/6

f 386/1/6 268/1/6 82/1/6 101/1/6

f 389/1/6 390/1/6 268/1/6 386/1/6

f 390/1/6 391/1/6 269/1/6 268/1/6

f 373/1/6 392/1/6 103/1/6 99/1/6

f 392/1/6 357/1/6 98/1/6 103/1/6

f 80/1/6 56/1/6 38/1/6 283/1/6

f 256/1/6 257/1/6 274/1/6 270/1/6

f 272/1/6 283/1/6 249/1/6 273/1/6

f 288/1/6 289/1/6 301/1/6 299/1/6

f 254/1/6 255/1/6 271/1/6 267/1/6

f 296/1/6 297/1/6 314/1/6 312/1/6

f 266/1/6 265/1/6 285/1/6 281/1/6

f 252/1/6 251/1/6 266/1/6 262/1/6

f 294/1/6 293/1/6 311/1/6 308/1/6

f 261/1/6 260/1/6 309/1/6 275/1/6

f 302/1/6 258/1/6 261/1/6 263/1/6

f 264/1/6 275/1/6 304/1/6 290/1/6

f 383/1/6 384/1/6 357/1/6 392/1/6

f 303/1/6 305/1/6 320/1/6 318/1/6

f 319/1/6 321/1/6 336/1/6 332/1/6

f 336/1/6 335/1/6 350/1/6 348/1/6

f 323/1/6 324/1/6 341/1/6 337/1/6

f 326/1/6 327/1/6 345/1/6 342/1/6

f 316/1/6 317/1/6 329/1/6 328/1/6

f 344/1/6 291/1/6 292/1/6 355/1/6

f 366/1/6 367/1/6 381/1/6 379/1/6

f 391/1/6 343/1/6 276/1/6 269/1/6

f 351/1/6 352/1/6 365/1/6 363/1/6

f 387/1/6 389/1/6 386/1/6 339/1/6

f 374/1/6 376/1/6 388/1/6 385/1/6

f 359/1/6 361/1/6 375/1/6 372/1/6

f 346/1/6 347/1/6 360/1/6 358/1/6

f 369/1/6 370/1/6 278/1/6 277/1/6

f 278/1/6 382/1/6 373/1/6 279/1/6

# numNormals 6
# numTexCoords 1
# numVerts 392
# numFaces 390
