# MagicaVoxel @ ephtracy

# material
mtllib mushroom.mtl

# normals
vn -1 0 0
vn 1 0 0
vn 0 0 1
vn 0 0 -1
vn 0 -1 0
vn 0 1 0

# texcoords
vt 0.341797 0.5

# verts
v -6.5 0 -19.5
v -6.5 1 -19.5
v -6.5 1 -20.5
v -6.5 0 -20.5
v -6.5 2 -20.5
v -6.5 2 -21.5
v -6.5 1 -21.5
v -8.5 1 -13.5
v -8.5 2 -13.5
v -8.5 2 -14.5
v -8.5 1 -14.5
v -8.5 1 -15.5
v -8.5 2 -15.5
v -8.5 2 -16.5
v -8.5 1 -16.5
v -6.5 0 -9.5
v -6.5 1 -9.5
v -6.5 1 -10.5
v -6.5 0 -10.5
v -7.5 0 -10.5
v -7.5 1 -10.5
v -7.5 1 -11.5
v -7.5 0 -11.5
v -8.5 1 -12.5
v -8.5 2 -12.5
v 3.5 1 -17.5
v 3.5 2 -17.5
v 3.5 2 -18.5
v 3.5 1 -18.5
v -7.5 0 -18.5
v -7.5 1 -18.5
v -7.5 1 -19.5
v -7.5 0 -19.5
v -3.5 1 -15.5
v -3.5 2 -15.5
v -3.5 2 -16.5
v -3.5 1 -16.5
v -4.5 1 -14.5
v -4.5 2 -14.5
v -4.5 2 -15.5
v -4.5 1 -15.5
v 3.5 1 -12.5
v 3.5 2 -12.5
v 3.5 2 -13.5
v 3.5 1 -13.5
v 3.5 1 -11.5
v 3.5 2 -11.5
v -8.5 2 -17.5
v -8.5 1 -17.5
v -7.5 0 -12.5
v -7.5 1 -12.5
v -7.5 1 -13.5
v -7.5 0 -13.5
v -8.5 1 -18.5
v -8.5 2 -18.5
v -8.5 2 -19.5
v -8.5 1 -19.5
v -1.5 1 -15.5
v -1.5 2 -15.5
v -1.5 2 -16.5
v -1.5 1 -16.5
v -8.5 1 -11.5
v -8.5 2 -11.5
v 3.5 1 -16.5
v 3.5 2 -16.5
v 3.5 2 -14.5
v 3.5 1 -14.5
v 1.5 1 -19.5
v 1.5 2 -19.5
v 1.5 2 -20.5
v 1.5 1 -20.5
v -2.5 1 -16.5
v -2.5 2 -16.5
v -2.5 2 -17.5
v -2.5 1 -17.5
v -1.5 1 -13.5
v -1.5 2 -13.5
v -1.5 2 -14.5
v -1.5 1 -14.5
v -7.5 0 -15.5
v -7.5 1 -15.5
v -7.5 1 -16.5
v -7.5 0 -16.5
v 1.5 1 -9.5
v 1.5 2 -9.5
v 1.5 2 -10.5
v 1.5 1 -10.5
v 3.5 2 -15.5
v 3.5 1 -15.5
v -7.5 1 -17.5
v -7.5 0 -17.5
v -8.5 1 -10.5
v -8.5 2 -10.5
v -3.5 1 -13.5
v -3.5 2 -13.5
v -3.5 2 -14.5
v -3.5 1 -14.5
v -7.5 2 -19.5
v -7.5 2 -20.5
v -7.5 1 -20.5
v -2.5 1 -12.5
v -2.5 2 -12.5
v -2.5 2 -13.5
v -2.5 1 -13.5
v -0.5 1 -14.5
v -0.5 2 -14.5
v -0.5 2 -15.5
v -0.5 1 -15.5
v 2.5 1 -10.5
v 2.5 2 -10.5
v 2.5 2 -11.5
v 2.5 1 -11.5
v 2.5 1 -18.5
v 2.5 2 -18.5
v 2.5 2 -19.5
v 2.5 1 -19.5
v -7.5 1 -14.5
v -7.5 0 -14.5
v -6.5 1 -8.5
v -6.5 2 -8.5
v -6.5 2 -9.5
v -7.5 1 -9.5
v -7.5 2 -9.5
v -7.5 2 -10.5
v -7.5 2 -14.5
v -7.5 2 -13.5
v -7.5 2 -16.5
v -7.5 2 -15.5
v 4.5 1 -10.5
v 4.5 1 -11.5
v 4.5 2 -11.5
v 4.5 2 -10.5
v -5.5 1 -19.5
v -5.5 1 -20.5
v -5.5 2 -20.5
v -5.5 2 -19.5
v 4.5 1 -18.5
v 4.5 1 -19.5
v 4.5 2 -19.5
v 4.5 2 -18.5
v -7.5 2 -12.5
v 4.5 1 -17.5
v 4.5 2 -17.5
v -2.5 1 -15.5
v -2.5 2 -15.5
v 3.5 0 -16.5
v 3.5 0 -17.5
v 4.5 1 -12.5
v 4.5 1 -13.5
v 4.5 2 -13.5
v 4.5 2 -12.5
v -7.5 2 -17.5
v -6.5 1 -11.5
v -6.5 2 -11.5
v -6.5 2 -10.5
v 3.5 1 -9.5
v 3.5 1 -10.5
v 3.5 2 -10.5
v 3.5 2 -9.5
v 3.5 0 -12.5
v 3.5 0 -13.5
v -0.5 1 -16.5
v -0.5 2 -16.5
v 3.5 1 -19.5
v 3.5 1 -20.5
v 3.5 2 -20.5
v 3.5 2 -19.5
v 3.5 0 -15.5
v -6.5 1 -18.5
v -6.5 2 -19.5
v -6.5 2 -18.5
v -7.5 2 -11.5
v 4.5 1 -16.5
v 4.5 2 -16.5
v 4.5 1 -14.5
v 4.5 2 -14.5
v 2.5 1 -20.5
v 2.5 1 -21.5
v 2.5 2 -21.5
v 2.5 2 -20.5
v 3.5 0 -18.5
v 3.5 0 -19.5
v 3.5 0 -14.5
v -1.5 1 -17.5
v -1.5 2 -17.5
v -0.5 1 -13.5
v -0.5 2 -13.5
v 4.5 1 -15.5
v 4.5 2 -15.5
v -2.5 1 -14.5
v -2.5 2 -14.5
v -1.5 1 -12.5
v -1.5 2 -12.5
v 0.5 1 -14.5
v 0.5 1 -15.5
v 0.5 2 -15.5
v 0.5 2 -14.5
v 2.5 0 -19.5
v 2.5 0 -20.5
v -5.5 1 -9.5
v -5.5 1 -10.5
v -5.5 2 -10.5
v -5.5 2 -9.5
v -7.5 2 -18.5
v 2.5 0 -9.5
v 2.5 0 -10.5
v 2.5 1 -9.5
v 2.5 0 -11.5
v 2.5 1 -8.5
v 2.5 2 -9.5
v 2.5 2 -8.5
v 3.5 0 -11.5
v -0.5 1 -20.5
v 0.5 1 -20.5
v 0.5 2 -20.5
v -0.5 2 -20.5
v -2.5 1 -20.5
v -1.5 1 -20.5
v -1.5 2 -20.5
v -2.5 2 -20.5
v -5.5 0 -9.5
v -4.5 0 -9.5
v -3.5 0 -9.5
v -3.5 1 -9.5
v -4.5 1 -9.5
v -2.5 0 -9.5
v -2.5 1 -9.5
v -0.5 0 -9.5
v 0.5 0 -9.5
v 0.5 1 -9.5
v -0.5 1 -9.5
v -1.5 0 -9.5
v -1.5 1 -9.5
v 1.5 0 -9.5
v -4.5 1 -20.5
v -3.5 1 -20.5
v -3.5 2 -20.5
v -4.5 2 -20.5
v 1.5 1 -8.5
v 1.5 2 -8.5
v 0.5 1 -8.5
v 0.5 2 -8.5
v -0.5 1 -8.5
v -0.5 2 -8.5
v -5.5 1 -8.5
v -5.5 2 -8.5
v -4.5 1 -8.5
v -4.5 2 -8.5
v -3.5 1 -8.5
v -3.5 2 -8.5
v -2.5 1 -8.5
v -2.5 2 -8.5
v -1.5 1 -8.5
v -1.5 2 -8.5
v -5.5 0 -20.5
v -5.5 2 -21.5
v -5.5 1 -21.5
v -0.5 1 -21.5
v -0.5 2 -21.5
v 0.5 2 -21.5
v 0.5 1 -21.5
v -2.5 1 -21.5
v -2.5 2 -21.5
v -1.5 2 -21.5
v -1.5 1 -21.5
v 0.5 0 -20.5
v 1.5 0 -20.5
v -1.5 0 -20.5
v -0.5 0 -20.5
v -3.5 0 -20.5
v -2.5 0 -20.5
v 1.5 1 -21.5
v 1.5 2 -21.5
v -4.5 0 -20.5
v -4.5 1 -21.5
v -4.5 2 -21.5
v -3.5 2 -21.5
v -3.5 1 -21.5
v 0.5 2 -9.5
v -0.5 2 -9.5
v -4.5 2 -9.5
v -3.5 2 -9.5
v -2.5 2 -9.5
v -1.5 2 -9.5
v -5.5 0 -19.5
v -3.5 0 -18.5
v -3.5 0 -19.5
v -2.5 0 -19.5
v -2.5 0 -18.5
v -5.5 0 -10.5
v 1.5 0 -18.5
v 1.5 0 -19.5
v 2.5 0 -18.5
v -4.5 0 -10.5
v -3.5 0 -10.5
v -2.5 0 -10.5
v -0.5 0 -18.5
v -0.5 0 -19.5
v 0.5 0 -19.5
v 0.5 0 -18.5
v -0.5 0 -10.5
v 0.5 0 -10.5
v -6.5 0 -16.5
v -6.5 0 -17.5
v -5.5 0 -17.5
v -5.5 0 -16.5
v -6.5 0 -11.5
v -4.5 0 -11.5
v -3.5 0 -11.5
v -1.5 0 -18.5
v -1.5 0 -19.5
v -1.5 0 -10.5
v -1.5 0 -11.5
v -0.5 0 -11.5
v 0.5 0 -11.5
v 1.5 0 -11.5
v 1.5 0 -10.5
v -6.5 0 -18.5
v 1.5 0 -17.5
v 2.5 0 -17.5
v 2.5 0 -16.5
v -4.5 0 -12.5
v -3.5 0 -12.5
v -2.5 0 -11.5
v -2.5 0 -12.5
v -1.5 0 -12.5
v -1.5 0 -16.5
v -1.5 0 -17.5
v -0.5 0 -17.5
v -0.5 0 -16.5
v -3.5 0 -14.5
v -3.5 0 -15.5
v -2.5 0 -15.5
v -2.5 0 -14.5
v -6.5 0 -13.5
v -6.5 0 -12.5
v -5.5 0 -13.5
v -5.5 0 -12.5
v -4.5 0 -13.5
v -5.5 0 -11.5
v -3.5 0 -13.5
v -2.5 0 -13.5
v -1.5 0 -13.5
v -0.5 0 -12.5
v -0.5 0 -13.5
v 0.5 0 -13.5
v 0.5 0 -12.5
v 1.5 0 -13.5
v 1.5 0 -12.5
v 2.5 0 -13.5
v 2.5 0 -12.5
v -6.5 0 -14.5
v -5.5 0 -14.5
v -4.5 0 -14.5
v -5.5 0 -15.5
v -4.5 0 -15.5
v 0.5 0 -14.5
v 1.5 0 -14.5
v 2.5 0 -15.5
v 1.5 0 -16.5
v 2.5 0 -14.5
v -6.5 0 -15.5
v -4.5 0 -19.5
v -4.5 0 -16.5
v -1.5 0 -15.5
v -0.5 0 -15.5
v 0.5 0 -16.5
v 0.5 0 -15.5
v 1.5 0 -15.5
v -4.5 0 -17.5
v -3.5 0 -16.5
v -3.5 0 -17.5
v -2.5 0 -17.5
v -2.5 0 -16.5
v 0.5 0 -17.5
v -5.5 0 -18.5
v -4.5 0 -18.5
v -1.5 0 -14.5
v -0.5 0 -14.5
v -3.5 1 -18.5
v -2.5 1 -18.5
v -2.5 1 -19.5
v -3.5 1 -19.5
v 1.5 1 -18.5
v -3.5 1 -10.5
v -4.5 1 -10.5
v -2.5 1 -10.5
v -0.5 1 -18.5
v 0.5 1 -18.5
v 0.5 1 -19.5
v -0.5 1 -19.5
v 0.5 1 -10.5
v -0.5 1 -10.5
v -6.5 1 -16.5
v -5.5 1 -16.5
v -5.5 1 -17.5
v -6.5 1 -17.5
v -3.5 1 -11.5
v -4.5 1 -11.5
v -1.5 1 -18.5
v -1.5 1 -19.5
v -1.5 1 -10.5
v -0.5 1 -11.5
v -1.5 1 -11.5
v 0.5 1 -11.5
v 1.5 1 -11.5
v 1.5 1 -17.5
v 2.5 1 -17.5
v 2.5 1 -16.5
v -3.5 1 -12.5
v -4.5 1 -12.5
v -2.5 1 -11.5
v -0.5 1 -17.5
v -6.5 1 -12.5
v -6.5 1 -13.5
v -5.5 1 -12.5
v -5.5 1 -13.5
v -4.5 1 -13.5
v -5.5 1 -11.5
v -0.5 1 -12.5
v 0.5 1 -12.5
v 0.5 1 -13.5
v 1.5 1 -12.5
v 1.5 1 -13.5
v 2.5 1 -12.5
v 2.5 1 -13.5
v -5.5 1 -14.5
v -6.5 1 -14.5
v -5.5 1 -15.5
v 1.5 1 -14.5
v 2.5 1 -15.5
v 1.5 1 -16.5
v 2.5 1 -14.5
v -6.5 1 -15.5
v -4.5 1 -19.5
v -4.5 1 -16.5
v 0.5 1 -16.5
v 1.5 1 -15.5
v -4.5 1 -17.5
v -3.5 1 -17.5
v 0.5 1 -17.5
v -5.5 1 -18.5
v -4.5 1 -18.5

# faces

usemtl palette

f 1/1/1 2/1/1 3/1/1 4/1/1

f 3/1/1 5/1/1 6/1/1 7/1/1

f 8/1/1 9/1/1 10/1/1 11/1/1

f 12/1/1 13/1/1 14/1/1 15/1/1

f 16/1/1 17/1/1 18/1/1 19/1/1

f 20/1/1 21/1/1 22/1/1 23/1/1

f 24/1/1 25/1/1 9/1/1 8/1/1

f 26/1/1 27/1/1 28/1/1 29/1/1

f 30/1/1 31/1/1 32/1/1 33/1/1

f 34/1/1 35/1/1 36/1/1 37/1/1

f 38/1/1 39/1/1 40/1/1 41/1/1

f 42/1/1 43/1/1 44/1/1 45/1/1

f 46/1/1 47/1/1 43/1/1 42/1/1

f 15/1/1 14/1/1 48/1/1 49/1/1

f 50/1/1 51/1/1 52/1/1 53/1/1

f 54/1/1 55/1/1 56/1/1 57/1/1

f 58/1/1 59/1/1 60/1/1 61/1/1

f 11/1/1 10/1/1 13/1/1 12/1/1

f 62/1/1 63/1/1 25/1/1 24/1/1

f 64/1/1 65/1/1 27/1/1 26/1/1

f 45/1/1 44/1/1 66/1/1 67/1/1

f 68/1/1 69/1/1 70/1/1 71/1/1

f 23/1/1 22/1/1 51/1/1 50/1/1

f 72/1/1 73/1/1 74/1/1 75/1/1

f 76/1/1 77/1/1 78/1/1 79/1/1

f 80/1/1 81/1/1 82/1/1 83/1/1

f 84/1/1 85/1/1 86/1/1 87/1/1

f 67/1/1 66/1/1 88/1/1 89/1/1

f 89/1/1 88/1/1 65/1/1 64/1/1

f 83/1/1 82/1/1 90/1/1 91/1/1

f 92/1/1 93/1/1 63/1/1 62/1/1

f 94/1/1 95/1/1 96/1/1 97/1/1

f 32/1/1 98/1/1 99/1/1 100/1/1

f 101/1/1 102/1/1 103/1/1 104/1/1

f 105/1/1 106/1/1 107/1/1 108/1/1

f 91/1/1 90/1/1 31/1/1 30/1/1

f 109/1/1 110/1/1 111/1/1 112/1/1

f 113/1/1 114/1/1 115/1/1 116/1/1

f 49/1/1 48/1/1 55/1/1 54/1/1

f 53/1/1 52/1/1 117/1/1 118/1/1

f 118/1/1 117/1/1 81/1/1 80/1/1

f 119/1/1 120/1/1 121/1/1 17/1/1

f 122/1/1 123/1/1 124/1/1 21/1/1

f 52/1/2 117/1/2 125/1/2 126/1/2

f 81/1/2 82/1/2 127/1/2 128/1/2

f 129/1/2 130/1/2 131/1/2 132/1/2

f 133/1/2 134/1/2 135/1/2 136/1/2

f 137/1/2 138/1/2 139/1/2 140/1/2

f 51/1/2 52/1/2 126/1/2 141/1/2

f 142/1/2 137/1/2 140/1/2 143/1/2

f 144/1/2 72/1/2 73/1/2 145/1/2

f 97/1/2 34/1/2 35/1/2 96/1/2

f 146/1/2 147/1/2 26/1/2 64/1/2

f 148/1/2 149/1/2 150/1/2 151/1/2

f 130/1/2 148/1/2 151/1/2 131/1/2

f 82/1/2 90/1/2 152/1/2 127/1/2

f 18/1/2 153/1/2 154/1/2 155/1/2

f 156/1/2 157/1/2 158/1/2 159/1/2

f 160/1/2 161/1/2 45/1/2 42/1/2

f 108/1/2 162/1/2 163/1/2 107/1/2

f 164/1/2 165/1/2 166/1/2 167/1/2

f 168/1/2 146/1/2 64/1/2 89/1/2

f 117/1/2 81/1/2 128/1/2 125/1/2

f 169/1/2 2/1/2 170/1/2 171/1/2

f 22/1/2 51/1/2 141/1/2 172/1/2

f 173/1/2 142/1/2 143/1/2 174/1/2

f 149/1/2 175/1/2 176/1/2 150/1/2

f 177/1/2 178/1/2 179/1/2 180/1/2

f 181/1/2 182/1/2 164/1/2 29/1/2

f 183/1/2 168/1/2 89/1/2 67/1/2

f 61/1/2 184/1/2 185/1/2 60/1/2

f 186/1/2 105/1/2 106/1/2 187/1/2

f 175/1/2 188/1/2 189/1/2 176/1/2

f 188/1/2 173/1/2 174/1/2 189/1/2

f 104/1/2 190/1/2 191/1/2 103/1/2

f 192/1/2 76/1/2 77/1/2 193/1/2

f 194/1/2 195/1/2 196/1/2 197/1/2

f 198/1/2 199/1/2 177/1/2 116/1/2

f 147/1/2 181/1/2 29/1/2 26/1/2

f 161/1/2 183/1/2 67/1/2 45/1/2

f 200/1/2 201/1/2 202/1/2 203/1/2

f 90/1/2 31/1/2 204/1/2 152/1/2

f 205/1/2 206/1/2 109/1/2 207/1/2

f 206/1/2 208/1/2 112/1/2 109/1/2

f 209/1/2 207/1/2 210/1/2 211/1/2

f 212/1/2 160/1/2 42/1/2 46/1/2

f 213/1/3 214/1/3 215/1/3 216/1/3

f 217/1/3 218/1/3 219/1/3 220/1/3

f 16/1/3 221/1/3 200/1/3 17/1/3

f 222/1/3 223/1/3 224/1/3 225/1/3

f 223/1/3 226/1/3 227/1/3 224/1/3

f 157/1/3 129/1/3 132/1/3 158/1/3

f 228/1/3 229/1/3 230/1/3 231/1/3

f 2/1/3 133/1/3 136/1/3 170/1/3

f 20/1/3 19/1/3 18/1/3 21/1/3

f 34/1/3 144/1/3 145/1/3 35/1/3

f 38/1/3 97/1/3 96/1/3 39/1/3

f 207/1/3 156/1/3 159/1/3 210/1/3

f 58/1/3 108/1/3 107/1/3 59/1/3

f 31/1/3 169/1/3 171/1/3 204/1/3

f 218/1/3 213/1/3 216/1/3 219/1/3

f 68/1/3 116/1/3 115/1/3 69/1/3

f 72/1/3 61/1/3 60/1/3 73/1/3

f 76/1/3 186/1/3 187/1/3 77/1/3

f 232/1/3 228/1/3 231/1/3 233/1/3

f 92/1/3 21/1/3 124/1/3 93/1/3

f 94/1/3 104/1/3 103/1/3 95/1/3

f 101/1/3 192/1/3 193/1/3 102/1/3

f 105/1/3 194/1/3 197/1/3 106/1/3

f 214/1/3 71/1/3 70/1/3 215/1/3

f 113/1/3 29/1/3 28/1/3 114/1/3

f 234/1/3 205/1/3 207/1/3 84/1/3

f 229/1/3 234/1/3 84/1/3 230/1/3

f 235/1/3 236/1/3 237/1/3 238/1/3

f 226/1/3 232/1/3 233/1/3 227/1/3

f 221/1/3 222/1/3 225/1/3 200/1/3

f 134/1/3 235/1/3 238/1/3 135/1/3

f 236/1/3 217/1/3 220/1/3 237/1/3

f 239/1/3 209/1/3 211/1/3 240/1/3

f 241/1/3 239/1/3 240/1/3 242/1/3

f 243/1/3 241/1/3 242/1/3 244/1/3

f 119/1/3 245/1/3 246/1/3 120/1/3

f 245/1/3 247/1/3 248/1/3 246/1/3

f 247/1/3 249/1/3 250/1/3 248/1/3

f 249/1/3 251/1/3 252/1/3 250/1/3

f 251/1/3 253/1/3 254/1/3 252/1/3

f 253/1/3 243/1/3 244/1/3 254/1/3

f 122/1/3 17/1/3 121/1/3 123/1/3

f 208/1/3 212/1/3 46/1/3 112/1/3

f 4/1/4 3/1/4 134/1/4 255/1/4

f 7/1/4 6/1/4 256/1/4 257/1/4

f 258/1/4 259/1/4 260/1/4 261/1/4

f 262/1/4 263/1/4 264/1/4 265/1/4

f 164/1/4 167/1/4 139/1/4 138/1/4

f 266/1/4 214/1/4 71/1/4 267/1/4

f 33/1/4 32/1/4 2/1/4 1/1/4

f 37/1/4 36/1/4 73/1/4 72/1/4

f 41/1/4 40/1/4 35/1/4 34/1/4

f 268/1/4 218/1/4 213/1/4 269/1/4

f 22/1/4 172/1/4 154/1/4 153/1/4

f 57/1/4 56/1/4 98/1/4 32/1/4

f 61/1/4 60/1/4 163/1/4 162/1/4

f 270/1/4 236/1/4 217/1/4 271/1/4

f 177/1/4 180/1/4 166/1/4 165/1/4

f 269/1/4 213/1/4 214/1/4 266/1/4

f 271/1/4 217/1/4 218/1/4 268/1/4

f 265/1/4 264/1/4 259/1/4 258/1/4

f 272/1/4 273/1/4 179/1/4 178/1/4

f 198/1/4 116/1/4 164/1/4 182/1/4

f 75/1/4 74/1/4 185/1/4 184/1/4

f 79/1/4 78/1/4 106/1/4 105/1/4

f 255/1/4 134/1/4 235/1/4 274/1/4

f 87/1/4 86/1/4 110/1/4 109/1/4

f 97/1/4 96/1/4 191/1/4 190/1/4

f 100/1/4 99/1/4 5/1/4 3/1/4

f 274/1/4 235/1/4 236/1/4 270/1/4

f 104/1/4 103/1/4 77/1/4 76/1/4

f 108/1/4 107/1/4 196/1/4 195/1/4

f 112/1/4 111/1/4 47/1/4 46/1/4

f 267/1/4 71/1/4 177/1/4 199/1/4

f 261/1/4 260/1/4 273/1/4 272/1/4

f 18/1/4 155/1/4 202/1/4 201/1/4

f 275/1/4 276/1/4 277/1/4 278/1/4

f 257/1/4 256/1/4 276/1/4 275/1/4

f 278/1/4 277/1/4 263/1/4 262/1/4

f 230/1/4 279/1/4 85/1/4 84/1/4

f 231/1/4 280/1/4 279/1/4 230/1/4

f 200/1/4 203/1/4 281/1/4 225/1/4

f 225/1/4 281/1/4 282/1/4 224/1/4

f 224/1/4 282/1/4 283/1/4 227/1/4

f 227/1/4 283/1/4 284/1/4 233/1/4

f 233/1/4 284/1/4 280/1/4 231/1/4

f 1/1/5 4/1/5 255/1/5 285/1/5

f 3/1/5 7/1/5 257/1/5 134/1/5

f 213/1/5 258/1/5 261/1/5 214/1/5

f 286/1/5 287/1/5 288/1/5 289/1/5

f 8/1/5 11/1/5 117/1/5 52/1/5

f 217/1/5 262/1/5 265/1/5 218/1/5

f 12/1/5 15/1/5 82/1/5 81/1/5

f 16/1/5 19/1/5 290/1/5 221/1/5

f 291/1/5 292/1/5 198/1/5 293/1/5

f 222/1/5 294/1/5 295/1/5 223/1/5

f 223/1/5 295/1/5 296/1/5 226/1/5

f 297/1/5 298/1/5 299/1/5 300/1/5

f 157/1/5 46/1/5 130/1/5 129/1/5

f 228/1/5 301/1/5 302/1/5 229/1/5

f 303/1/5 304/1/5 305/1/5 306/1/5

f 20/1/5 23/1/5 307/1/5 19/1/5

f 29/1/5 164/1/5 138/1/5 137/1/5

f 299/1/5 266/1/5 267/1/5 292/1/5

f 294/1/5 308/1/5 309/1/5 295/1/5

f 24/1/5 8/1/5 52/1/5 51/1/5

f 310/1/5 311/1/5 298/1/5 297/1/5

f 312/1/5 313/1/5 314/1/5 301/1/5

f 301/1/5 314/1/5 315/1/5 302/1/5

f 302/1/5 315/1/5 316/1/5 317/1/5

f 26/1/5 29/1/5 137/1/5 142/1/5

f 30/1/5 33/1/5 1/1/5 318/1/5

f 319/1/5 291/1/5 293/1/5 320/1/5

f 321/1/5 320/1/5 147/1/5 146/1/5

f 308/1/5 322/1/5 323/1/5 309/1/5

f 311/1/5 268/1/5 269/1/5 298/1/5

f 324/1/5 325/1/5 326/1/5 313/1/5

f 42/1/5 45/1/5 149/1/5 148/1/5

f 46/1/5 42/1/5 148/1/5 130/1/5

f 327/1/5 328/1/5 329/1/5 330/1/5

f 15/1/5 49/1/5 90/1/5 82/1/5

f 331/1/5 332/1/5 333/1/5 334/1/5

f 328/1/5 310/1/5 297/1/5 329/1/5

f 50/1/5 53/1/5 335/1/5 336/1/5

f 336/1/5 335/1/5 337/1/5 338/1/5

f 338/1/5 337/1/5 339/1/5 322/1/5

f 307/1/5 336/1/5 338/1/5 340/1/5

f 323/1/5 341/1/5 342/1/5 325/1/5

f 325/1/5 342/1/5 343/1/5 326/1/5

f 207/1/5 109/1/5 157/1/5 156/1/5

f 344/1/5 345/1/5 346/1/5 347/1/5

f 347/1/5 346/1/5 348/1/5 349/1/5

f 349/1/5 348/1/5 350/1/5 351/1/5

f 351/1/5 350/1/5 161/1/5 160/1/5

f 54/1/5 57/1/5 32/1/5 31/1/5

f 290/1/5 340/1/5 308/1/5 294/1/5

f 335/1/5 352/1/5 353/1/5 337/1/5

f 287/1/5 270/1/5 271/1/5 288/1/5

f 339/1/5 354/1/5 331/1/5 341/1/5

f 341/1/5 331/1/5 334/1/5 342/1/5

f 116/1/5 177/1/5 165/1/5 164/1/5

f 353/1/5 355/1/5 356/1/5 354/1/5

f 298/1/5 269/1/5 266/1/5 299/1/5

f 346/1/5 357/1/5 358/1/5 348/1/5

f 359/1/5 321/1/5 146/1/5 168/1/5

f 11/1/5 12/1/5 81/1/5 117/1/5

f 62/1/5 24/1/5 51/1/5 22/1/5

f 360/1/5 319/1/5 320/1/5 321/1/5

f 288/1/5 271/1/5 268/1/5 311/1/5

f 64/1/5 26/1/5 142/1/5 173/1/5

f 354/1/5 356/1/5 332/1/5 331/1/5

f 218/1/5 265/1/5 258/1/5 213/1/5

f 45/1/5 67/1/5 175/1/5 149/1/5

f 71/1/5 272/1/5 178/1/5 177/1/5

f 293/1/5 198/1/5 182/1/5 181/1/5

f 23/1/5 50/1/5 336/1/5 307/1/5

f 361/1/5 359/1/5 168/1/5 183/1/5

f 80/1/5 83/1/5 303/1/5 362/1/5

f 285/1/5 255/1/5 274/1/5 363/1/5

f 355/1/5 306/1/5 364/1/5 356/1/5

f 340/1/5 338/1/5 322/1/5 308/1/5

f 232/1/5 312/1/5 301/1/5 228/1/5

f 365/1/5 327/1/5 330/1/5 366/1/5

f 366/1/5 330/1/5 367/1/5 368/1/5

f 368/1/5 367/1/5 360/1/5 369/1/5

f 369/1/5 360/1/5 321/1/5 359/1/5

f 67/1/5 89/1/5 188/1/5 175/1/5

f 306/1/5 305/1/5 370/1/5 364/1/5

f 89/1/5 64/1/5 173/1/5 188/1/5

f 83/1/5 91/1/5 304/1/5 303/1/5

f 289/1/5 288/1/5 311/1/5 310/1/5

f 92/1/5 62/1/5 22/1/5 21/1/5

f 371/1/5 372/1/5 373/1/5 374/1/5

f 374/1/5 373/1/5 328/1/5 327/1/5

f 32/1/5 100/1/5 3/1/5 2/1/5

f 330/1/5 329/1/5 375/1/5 367/1/5

f 367/1/5 375/1/5 319/1/5 360/1/5

f 363/1/5 274/1/5 270/1/5 287/1/5

f 318/1/5 1/1/5 285/1/5 376/1/5

f 91/1/5 30/1/5 318/1/5 304/1/5

f 326/1/5 343/1/5 345/1/5 344/1/5

f 305/1/5 376/1/5 377/1/5 370/1/5

f 109/1/5 112/1/5 46/1/5 157/1/5

f 372/1/5 286/1/5 289/1/5 373/1/5

f 373/1/5 289/1/5 310/1/5 328/1/5

f 295/1/5 309/1/5 324/1/5 296/1/5

f 329/1/5 297/1/5 300/1/5 375/1/5

f 375/1/5 300/1/5 291/1/5 319/1/5

f 292/1/5 267/1/5 199/1/5 198/1/5

f 320/1/5 293/1/5 181/1/5 147/1/5

f 214/1/5 261/1/5 272/1/5 71/1/5

f 343/1/5 378/1/5 379/1/5 345/1/5

f 345/1/5 379/1/5 357/1/5 346/1/5

f 379/1/5 366/1/5 368/1/5 357/1/5

f 357/1/5 368/1/5 369/1/5 358/1/5

f 348/1/5 358/1/5 361/1/5 350/1/5

f 358/1/5 369/1/5 359/1/5 361/1/5

f 350/1/5 361/1/5 183/1/5 161/1/5

f 49/1/5 54/1/5 31/1/5 90/1/5

f 234/1/5 317/1/5 206/1/5 205/1/5

f 229/1/5 302/1/5 317/1/5 234/1/5

f 317/1/5 316/1/5 208/1/5 206/1/5

f 316/1/5 349/1/5 351/1/5 208/1/5

f 313/1/5 326/1/5 344/1/5 314/1/5

f 314/1/5 344/1/5 347/1/5 315/1/5

f 315/1/5 347/1/5 349/1/5 316/1/5

f 235/1/5 275/1/5 278/1/5 236/1/5

f 226/1/5 296/1/5 312/1/5 232/1/5

f 296/1/5 324/1/5 313/1/5 312/1/5

f 221/1/5 290/1/5 294/1/5 222/1/5

f 19/1/5 307/1/5 340/1/5 290/1/5

f 134/1/5 257/1/5 275/1/5 235/1/5

f 236/1/5 278/1/5 262/1/5 217/1/5

f 309/1/5 323/1/5 325/1/5 324/1/5

f 322/1/5 339/1/5 341/1/5 323/1/5

f 337/1/5 353/1/5 354/1/5 339/1/5

f 53/1/5 118/1/5 352/1/5 335/1/5

f 352/1/5 362/1/5 355/1/5 353/1/5

f 362/1/5 303/1/5 306/1/5 355/1/5

f 118/1/5 80/1/5 362/1/5 352/1/5

f 304/1/5 318/1/5 376/1/5 305/1/5

f 356/1/5 364/1/5 371/1/5 332/1/5

f 332/1/5 371/1/5 374/1/5 333/1/5

f 364/1/5 370/1/5 372/1/5 371/1/5

f 370/1/5 377/1/5 286/1/5 372/1/5

f 376/1/5 285/1/5 363/1/5 377/1/5

f 300/1/5 299/1/5 292/1/5 291/1/5

f 377/1/5 363/1/5 287/1/5 286/1/5

f 239/1/5 84/1/5 207/1/5 209/1/5

f 241/1/5 230/1/5 84/1/5 239/1/5

f 243/1/5 231/1/5 230/1/5 241/1/5

f 119/1/5 17/1/5 200/1/5 245/1/5

f 245/1/5 200/1/5 225/1/5 247/1/5

f 247/1/5 225/1/5 224/1/5 249/1/5

f 249/1/5 224/1/5 227/1/5 251/1/5

f 251/1/5 227/1/5 233/1/5 253/1/5

f 253/1/5 233/1/5 231/1/5 243/1/5

f 122/1/5 21/1/5 18/1/5 17/1/5

f 342/1/5 334/1/5 378/1/5 343/1/5

f 334/1/5 333/1/5 365/1/5 378/1/5

f 333/1/5 374/1/5 327/1/5 365/1/5

f 378/1/5 365/1/5 366/1/5 379/1/5

f 208/1/5 351/1/5 160/1/5 212/1/5

f 5/1/6 135/1/6 256/1/6 6/1/6

f 216/1/6 215/1/6 260/1/6 259/1/6

f 380/1/6 381/1/6 382/1/6 383/1/6

f 9/1/6 126/1/6 125/1/6 10/1/6

f 220/1/6 219/1/6 264/1/6 263/1/6

f 13/1/6 128/1/6 127/1/6 14/1/6

f 384/1/6 113/1/6 116/1/6 68/1/6

f 225/1/6 224/1/6 385/1/6 386/1/6

f 224/1/6 227/1/6 387/1/6 385/1/6

f 388/1/6 389/1/6 390/1/6 391/1/6

f 158/1/6 132/1/6 131/1/6 47/1/6

f 231/1/6 230/1/6 392/1/6 393/1/6

f 170/1/6 136/1/6 135/1/6 5/1/6

f 394/1/6 395/1/6 396/1/6 397/1/6

f 28/1/6 140/1/6 139/1/6 167/1/6

f 390/1/6 68/1/6 71/1/6 214/1/6

f 386/1/6 385/1/6 398/1/6 399/1/6

f 25/1/6 141/1/6 126/1/6 9/1/6

f 400/1/6 388/1/6 391/1/6 401/1/6

f 402/1/6 393/1/6 403/1/6 404/1/6

f 393/1/6 392/1/6 405/1/6 403/1/6

f 392/1/6 87/1/6 406/1/6 405/1/6

f 27/1/6 143/1/6 140/1/6 28/1/6

f 35/1/6 145/1/6 73/1/6 36/1/6

f 39/1/6 96/1/6 35/1/6 40/1/6

f 407/1/6 408/1/6 113/1/6 384/1/6

f 409/1/6 64/1/6 26/1/6 408/1/6

f 399/1/6 398/1/6 410/1/6 411/1/6

f 401/1/6 391/1/6 213/1/6 218/1/6

f 412/1/6 404/1/6 192/1/6 101/1/6

f 43/1/6 151/1/6 150/1/6 44/1/6

f 47/1/6 131/1/6 151/1/6 43/1/6

f 61/1/6 162/1/6 413/1/6 184/1/6

f 14/1/6 127/1/6 152/1/6 48/1/6

f 97/1/6 190/1/6 144/1/6 34/1/6

f 184/1/6 413/1/6 388/1/6 400/1/6

f 124/1/6 155/1/6 154/1/6 172/1/6

f 51/1/6 414/1/6 415/1/6 52/1/6

f 414/1/6 416/1/6 417/1/6 415/1/6

f 416/1/6 411/1/6 418/1/6 417/1/6

f 153/1/6 419/1/6 416/1/6 414/1/6

f 410/1/6 101/1/6 104/1/6 94/1/6

f 210/1/6 159/1/6 158/1/6 110/1/6

f 420/1/6 421/1/6 422/1/6 186/1/6

f 421/1/6 423/1/6 424/1/6 422/1/6

f 423/1/6 425/1/6 426/1/6 424/1/6

f 425/1/6 42/1/6 45/1/6 426/1/6

f 55/1/6 204/1/6 98/1/6 56/1/6

f 59/1/6 107/1/6 163/1/6 60/1/6

f 201/1/6 386/1/6 399/1/6 419/1/6

f 415/1/6 417/1/6 427/1/6 428/1/6

f 383/1/6 382/1/6 217/1/6 236/1/6

f 418/1/6 94/1/6 97/1/6 38/1/6

f 115/1/6 167/1/6 166/1/6 180/1/6

f 427/1/6 38/1/6 41/1/6 429/1/6

f 391/1/6 390/1/6 214/1/6 213/1/6

f 422/1/6 424/1/6 430/1/6 194/1/6

f 431/1/6 89/1/6 64/1/6 409/1/6

f 10/1/6 125/1/6 128/1/6 13/1/6

f 204/1/6 171/1/6 170/1/6 98/1/6

f 63/1/6 172/1/6 141/1/6 25/1/6

f 432/1/6 409/1/6 408/1/6 407/1/6

f 382/1/6 401/1/6 218/1/6 217/1/6

f 65/1/6 174/1/6 143/1/6 27/1/6

f 219/1/6 216/1/6 259/1/6 264/1/6

f 44/1/6 150/1/6 176/1/6 66/1/6

f 69/1/6 115/1/6 180/1/6 70/1/6

f 70/1/6 180/1/6 179/1/6 273/1/6

f 22/1/6 153/1/6 414/1/6 51/1/6

f 433/1/6 67/1/6 89/1/6 431/1/6

f 73/1/6 60/1/6 185/1/6 74/1/6

f 77/1/6 187/1/6 106/1/6 78/1/6

f 81/1/6 434/1/6 394/1/6 82/1/6

f 133/1/6 435/1/6 235/1/6 134/1/6

f 429/1/6 41/1/6 436/1/6 395/1/6

f 419/1/6 399/1/6 411/1/6 416/1/6

f 85/1/6 210/1/6 110/1/6 86/1/6

f 233/1/6 231/1/6 393/1/6 402/1/6

f 108/1/6 195/1/6 437/1/6 162/1/6

f 195/1/6 438/1/6 432/1/6 437/1/6

f 438/1/6 431/1/6 409/1/6 432/1/6

f 66/1/6 176/1/6 189/1/6 88/1/6

f 395/1/6 436/1/6 439/1/6 396/1/6

f 88/1/6 189/1/6 174/1/6 65/1/6

f 82/1/6 394/1/6 397/1/6 90/1/6

f 381/1/6 400/1/6 401/1/6 382/1/6

f 93/1/6 124/1/6 172/1/6 63/1/6

f 95/1/6 103/1/6 191/1/6 96/1/6

f 37/1/6 72/1/6 75/1/6 440/1/6

f 98/1/6 170/1/6 5/1/6 99/1/6

f 162/1/6 437/1/6 441/1/6 413/1/6

f 437/1/6 432/1/6 407/1/6 441/1/6

f 435/1/6 383/1/6 236/1/6 235/1/6

f 102/1/6 193/1/6 77/1/6 103/1/6

f 106/1/6 197/1/6 196/1/6 107/1/6

f 169/1/6 442/1/6 133/1/6 2/1/6

f 90/1/6 397/1/6 169/1/6 31/1/6

f 192/1/6 420/1/6 186/1/6 76/1/6

f 396/1/6 439/1/6 443/1/6 442/1/6

f 110/1/6 158/1/6 47/1/6 111/1/6

f 440/1/6 75/1/6 381/1/6 380/1/6

f 75/1/6 184/1/6 400/1/6 381/1/6

f 385/1/6 387/1/6 412/1/6 398/1/6

f 413/1/6 441/1/6 389/1/6 388/1/6

f 441/1/6 407/1/6 384/1/6 389/1/6

f 408/1/6 26/1/6 29/1/6 113/1/6

f 215/1/6 70/1/6 273/1/6 260/1/6

f 114/1/6 28/1/6 167/1/6 115/1/6

f 186/1/6 422/1/6 194/1/6 105/1/6

f 194/1/6 430/1/6 438/1/6 195/1/6

f 424/1/6 426/1/6 433/1/6 430/1/6

f 430/1/6 433/1/6 431/1/6 438/1/6

f 426/1/6 45/1/6 67/1/6 433/1/6

f 121/1/6 203/1/6 202/1/6 155/1/6

f 48/1/6 152/1/6 204/1/6 55/1/6

f 230/1/6 84/1/6 87/1/6 392/1/6

f 87/1/6 109/1/6 112/1/6 406/1/6

f 406/1/6 112/1/6 425/1/6 423/1/6

f 404/1/6 403/1/6 420/1/6 192/1/6

f 403/1/6 405/1/6 421/1/6 420/1/6

f 405/1/6 406/1/6 423/1/6 421/1/6

f 238/1/6 237/1/6 277/1/6 276/1/6

f 227/1/6 233/1/6 402/1/6 387/1/6

f 387/1/6 402/1/6 404/1/6 412/1/6

f 200/1/6 225/1/6 386/1/6 201/1/6

f 18/1/6 201/1/6 419/1/6 153/1/6

f 135/1/6 238/1/6 276/1/6 256/1/6

f 237/1/6 220/1/6 263/1/6 277/1/6

f 398/1/6 412/1/6 101/1/6 410/1/6

f 411/1/6 410/1/6 94/1/6 418/1/6

f 417/1/6 418/1/6 38/1/6 427/1/6

f 52/1/6 415/1/6 428/1/6 117/1/6

f 428/1/6 427/1/6 429/1/6 434/1/6

f 434/1/6 429/1/6 395/1/6 394/1/6

f 117/1/6 428/1/6 434/1/6 81/1/6

f 397/1/6 396/1/6 442/1/6 169/1/6

f 41/1/6 34/1/6 37/1/6 436/1/6

f 436/1/6 37/1/6 440/1/6 439/1/6

f 439/1/6 440/1/6 380/1/6 443/1/6

f 442/1/6 443/1/6 435/1/6 133/1/6

f 389/1/6 384/1/6 68/1/6 390/1/6

f 443/1/6 380/1/6 383/1/6 435/1/6

f 240/1/6 211/1/6 210/1/6 85/1/6

f 242/1/6 240/1/6 85/1/6 279/1/6

f 244/1/6 242/1/6 279/1/6 280/1/6

f 120/1/6 246/1/6 203/1/6 121/1/6

f 246/1/6 248/1/6 281/1/6 203/1/6

f 248/1/6 250/1/6 282/1/6 281/1/6

f 250/1/6 252/1/6 283/1/6 282/1/6

f 252/1/6 254/1/6 284/1/6 283/1/6

f 254/1/6 244/1/6 280/1/6 284/1/6

f 123/1/6 121/1/6 155/1/6 124/1/6

f 104/1/6 76/1/6 79/1/6 190/1/6

f 190/1/6 79/1/6 58/1/6 144/1/6

f 144/1/6 58/1/6 61/1/6 72/1/6

f 79/1/6 105/1/6 108/1/6 58/1/6

f 112/1/6 46/1/6 42/1/6 425/1/6

# numNormals 6
# numTexCoords 1
# numVerts 443
# numFaces 486
